<svg width="476" height="120" viewBox="0 0 476 120" fill="none" xmlns="http://www.w3.org/2000/svg">
<path d="M234.31 17.51C233.22 28.4 242.34 37.51 253.22 36.42C261.28 35.61 267.8 29.1 268.6 21.04C269.69 10.15 260.57 1.03995 249.69 2.12995C241.63 2.93995 235.11 9.44995 234.31 17.51Z" fill="url(#paint0_linear_1449_9620)"/>
<path d="M211.79 78.9299L211.87 79.0099L231.54 59.3399L178.31 6.10992C172.89 0.689922 164.06 0.689922 158.64 6.10992C153.2 11.5499 153.2 20.3499 158.64 25.7799L192.12 59.2599L158.64 92.7399C153.2 98.1799 153.2 106.97 158.64 112.41C164.08 117.85 172.87 117.85 178.31 112.41L211.79 78.9299Z" fill="url(#paint1_linear_1449_9620)"/>
<path d="M264.94 92.7398L243.5 71.2998L223.83 90.9698L245.27 112.41C250.69 117.83 259.52 117.83 264.94 112.41C270.38 106.97 270.38 98.1698 264.94 92.7398Z" fill="url(#paint2_linear_1449_9620)"/>
<path d="M311.81 2.3999C304 2.3999 297.65 8.74991 297.65 16.5599V117.78H325.97V16.5599C325.97 8.74991 319.62 2.3999 311.81 2.3999Z" fill="url(#paint3_linear_1449_9620)"/>
<path d="M413.62 0C377.42 0 351.14 25.28 351.13 60.09C351.14 95.32 376.84 119.93 413.62 119.94C450.26 119.94 475.86 95.32 475.87 60.09C475.86 24.72 450.26 0.01 413.62 0ZM413.39 95.94C413.39 95.94 413.39 95.94 413.37 95.94C393.94 95.94 380.17 80.71 380.17 60.1C380.17 39.6 393.1 24.02 413.34 24.02C413.36 24.02 413.38 24.02 413.4 24.02C433.62 24.02 446.82 39.25 446.81 60.1C446.81 80.93 432.6 95.94 413.37 95.94H413.39Z" fill="url(#paint4_linear_1449_9620)"/>
<path d="M95.7 16.4401V23.8401C95.7 23.8401 80.25 0.130107 52.42 0.110107C22.06 0.120107 0.01 25.3001 0 59.9701V60.0801C0 94.7501 22.05 119.92 52.42 119.94C80.25 119.92 95.7 96.2101 95.7 96.2101V117.78H124.02V16.4401C124.02 8.62009 117.68 2.28009 109.86 2.28009C102.04 2.28009 95.7 8.62009 95.7 16.4401ZM95.7 60.0901C95.7 81.5701 81.03 95.9301 62.52 95.9301C62.5 95.9301 62.48 95.9301 62.46 95.9301C42.86 95.9301 29.04 80.0901 29.05 60.0901V59.9701C29.05 39.9701 42.86 24.1301 62.46 24.1301C62.48 24.1301 62.5 24.1301 62.52 24.1301C81.03 24.1301 95.71 38.5001 95.7 59.9701V60.0901Z" fill="url(#paint5_linear_1449_9620)"/>
<defs>
<linearGradient id="paint0_linear_1449_9620" x1="39.2202" y1="19.27" x2="567.54" y2="19.27" gradientUnits="userSpaceOnUse">
<stop stop-color="#B4E300"/>
<stop offset="1" stop-color="#6EC800"/>
</linearGradient>
<linearGradient id="paint1_linear_1449_9620" x1="39.2201" y1="59.2699" x2="567.54" y2="59.2699" gradientUnits="userSpaceOnUse">
<stop stop-color="#B4E300"/>
<stop offset="1" stop-color="#6EC800"/>
</linearGradient>
<linearGradient id="paint2_linear_1449_9620" x1="39.2201" y1="93.8898" x2="567.54" y2="93.8898" gradientUnits="userSpaceOnUse">
<stop stop-color="#B4E300"/>
<stop offset="1" stop-color="#6EC800"/>
</linearGradient>
<linearGradient id="paint3_linear_1449_9620" x1="39.22" y1="60.0899" x2="567.54" y2="60.0899" gradientUnits="userSpaceOnUse">
<stop stop-color="#B4E300"/>
<stop offset="1" stop-color="#6EC800"/>
</linearGradient>
<linearGradient id="paint4_linear_1449_9620" x1="39.22" y1="59.97" x2="567.54" y2="59.97" gradientUnits="userSpaceOnUse">
<stop stop-color="#B4E300"/>
<stop offset="1" stop-color="#6EC800"/>
</linearGradient>
<linearGradient id="paint5_linear_1449_9620" x1="39.22" y1="60.0301" x2="567.54" y2="60.0301" gradientUnits="userSpaceOnUse">
<stop stop-color="#B4E300"/>
<stop offset="1" stop-color="#6EC800"/>
</linearGradient>
</defs>
</svg>
