<svg width="30" height="30" viewBox="0 0 30 30" fill="none" xmlns="http://www.w3.org/2000/svg">
<path d="M23.0001 2.30384C20.7001 0.851419 17.95 0 15 0C12.05 0 9.30001 0.851419 7 2.30384V27.6962C9.30001 29.1486 12.05 30 15 30C17.95 30 20.7001 29.1486 23.0001 27.6962V2.30384Z" fill="#F9F9F9"/>
<path d="M23 2.30316V27.6955C27.2 25.0911 30 20.2831 30 14.9743C30 9.66543 27.2 4.95759 23 2.30316Z" fill="#ED4C5C"/>
<path d="M7.00003 2.30397C2.80001 4.95839 0 9.76641 0 15.0252C0 20.2839 2.80001 25.092 7.00003 27.7464V2.30397Z" fill="#ED4C5C"/>
<path d="M20.4498 14.8268C20.2498 14.7266 20.1998 14.5263 20.2498 14.4261L20.7498 12.6231L18.9998 12.9737C18.9498 12.9737 18.7498 12.9737 18.6998 12.6231L18.5498 12.0221L17.3498 13.4244C17.3498 13.4244 16.5498 14.2759 16.7998 12.9737L17.2998 10.2191L16.3498 10.7199C16.2998 10.7199 16.0998 10.77 15.8498 10.2692L14.9998 8.51627L14.0998 10.169C13.8498 10.6699 13.6498 10.6198 13.5998 10.6198L12.6498 10.1189L13.1498 12.8735C13.3998 14.1757 12.5998 13.3243 12.5998 13.3243L11.3998 11.9219L11.2498 12.5229C11.1498 12.8735 10.9998 12.8735 10.9498 12.8735L9.19976 12.5229L9.69976 14.3259C9.69976 14.4762 9.69976 14.6264 9.49976 14.7266L8.99976 15.0271C8.99976 15.0271 10.9998 16.6298 11.6498 17.1807C11.7998 17.2809 12.0998 17.5814 11.9998 17.932L11.7498 18.6331L14.4998 18.2325C14.6498 18.2325 14.9498 18.2325 14.8998 18.6832L14.7498 21.538H15.2498L15.0998 18.6832C15.0998 18.2325 15.3998 18.2325 15.4998 18.2325L18.2498 18.6331L17.9998 17.932C17.8998 17.5814 18.1998 17.2809 18.3498 17.1807C18.9998 16.6298 20.9998 15.0271 20.9998 15.0271L20.4498 14.8268Z" fill="#ED4C5C"/>
</svg>
