<svg width="30" height="30" viewBox="0 0 30 30" fill="none" xmlns="http://www.w3.org/2000/svg">
<path d="M9.99985 29.1491V22.2491L4.84985 26.0491C6.29985 27.3991 8.04985 28.4491 9.99985 29.1491Z" fill="#2A5F9E"/>
<path d="M20 29.1493C21.95 28.4493 23.7 27.3993 25.15 26.0493L20 22.1993V29.1493Z" fill="#2A5F9E"/>
<path d="M0.849854 19.9998C0.999854 20.4998 1.19985 20.9498 1.44985 21.4498L3.39985 19.9998H0.849854Z" fill="#2A5F9E"/>
<path d="M26.5999 19.9991L28.5499 21.4491C28.7499 20.9991 28.9499 20.4991 29.1499 19.9991H26.5999Z" fill="#2A5F9E"/>
<path d="M10.75 17.9999H0.300049C0.450049 18.6999 0.650049 19.3499 0.850049 19.9999H3.40005L1.45005 21.4499C1.85005 22.2999 2.30005 23.0499 2.85005 23.7999L8.00005 19.9999H10V20.9999L4.15005 25.2999L4.85005 25.9999L10 22.2499V29.1499C10.65 29.3999 11.3 29.5499 12 29.6999V17.9999H10.75Z" fill="white"/>
<path d="M29.7 18H18V29.7C18.7 29.55 19.35 29.35 20 29.15V22.25L25.15 26C25.85 25.35 26.45 24.65 27.05 23.9L21.7 20H25.1L28.15 22.25C28.3 22 28.45 21.7 28.55 21.45L26.6 20H29.15C29.35 19.35 29.55 18.7 29.7 18Z" fill="white"/>
<path d="M2.8501 23.8005C3.2501 24.3505 3.6501 24.8505 4.1001 25.3505L10.0001 21.0505V20.0505H8.0001L2.8501 23.8005Z" fill="#ED4C5C"/>
<path d="M21.7502 20.0007L27.1002 23.9007C27.3002 23.6507 27.4502 23.4007 27.6502 23.1507C27.7002 23.1007 27.7002 23.0507 27.7502 23.0507C27.9002 22.8007 28.1002 22.5007 28.2502 22.2507L25.1002 20.0007H21.7502Z" fill="#ED4C5C"/>
<path d="M20 0.849609V7.74961L25.15 3.94961C23.7 2.59961 21.95 1.54961 20 0.849609Z" fill="#2A5F9E"/>
<path d="M9.99985 0.849609C8.04985 1.54961 6.29985 2.59961 4.84985 3.94961L9.99985 7.79961V0.849609Z" fill="#2A5F9E"/>
<path d="M29.1499 9.99986C28.9999 9.49986 28.7999 9.04986 28.5499 8.54986L26.5999 9.99986H29.1499Z" fill="#2A5F9E"/>
<path d="M3.39985 9.99986L1.44985 8.54986C1.24985 9.04986 1.04985 9.49986 0.849854 9.99986H3.39985Z" fill="#2A5F9E"/>
<path d="M19.25 12.001H29.65C29.5 11.301 29.3 10.651 29.1 10.001H26.55L28.5 8.55099C28.1 7.70099 27.65 6.95099 27.1 6.20099L22 10.001H20V9.00099L25.85 4.70099L25.15 4.00099L20 7.75099V0.850987C19.35 0.600987 18.7 0.450987 18 0.300987V12.001H19.25Z" fill="white"/>
<path d="M0.300049 12H12V0.300026C11.3 0.450026 10.65 0.650026 10 0.850026V7.75003L4.85005 4.00003C4.15005 4.65003 3.55005 5.35003 2.95005 6.10003L8.30005 10H4.90005L1.85005 7.75003C1.70005 8.00003 1.55005 8.30003 1.45005 8.55003L3.40005 10H0.850049C0.650049 10.65 0.450049 11.3 0.300049 12Z" fill="white"/>
<path d="M27.15 6.20054C26.75 5.65054 26.35 5.15054 25.9 4.65054L20 8.95054V9.95054H22L27.15 6.20054Z" fill="#ED4C5C"/>
<path d="M8.25005 9.99958L2.95005 6.09958C2.75005 6.34958 2.60005 6.59958 2.40005 6.84958C2.35005 6.89958 2.35005 6.94958 2.30005 6.94958C2.15005 7.19958 1.95005 7.49958 1.80005 7.74958L4.85005 9.99958H8.25005Z" fill="#ED4C5C"/>
<path d="M29.7 12H18V0.3C17.05 0.0999999 16.05 0 15 0C13.95 0 12.95 0.0999999 12 0.3V12H0.3C0.0999999 12.95 0 13.95 0 15C0 16.05 0.0999999 17.05 0.3 18H12V29.7C12.95 29.9 13.95 30 15 30C16.05 30 17.05 29.9 18 29.7V18H29.7C29.9 17.05 30 16.05 30 15C30 13.95 29.9 12.95 29.7 12Z" fill="#ED4C5C"/>
</svg>
