<?xml version="1.0" standalone="yes"?>
<svg xmlns="http://www.w3.org/2000/svg" width="40" height="40">
<path style="fill:#fffdfd; stroke:none;" d="M0 0L0 26L1 26C2.19986 20.1868 3.26664 8.82512 7.70293 4.6034C14.0496 -1.43633 33.1025 4.34377 40 7L40 0L0 0z"/>
<path style="fill:#f68d6c; stroke:none;" d="M7 3L7 4L26 4L7 3z"/>
<path style="fill:#fab8a3; stroke:none;" d="M26 3L27 4L26 3z"/>
<path style="fill:#fbd4c6; stroke:none;" d="M27 3L28 4L27 3z"/>
<path style="fill:#f15e2d; stroke:none;" d="M7 4L1 27L2 27L6 17L7 17L3 28L6 26L4 30L10 26L5 32L8 31L7 33L8 33L17 31L17 32L7 34L7 35C14.2379 34.4288 40.7879 27.419 24 18C25.31 16.99 26.7902 16.0313 27.8966 14.777C39.4955 1.62761 13.6311 4 7 4z"/>
<path style="fill:#fbd4c6; stroke:none;" d="M29.6667 4.33333L30.3333 4.66667L29.6667 4.33333z"/>
<path style="fill:#fab8a3; stroke:none;" d="M30 5L30 6L33 6L33 5L30 5z"/>
<path style="fill:#fbd4c6; stroke:none;" d="M33 4L34 5L33 4z"/>
<path style="fill:#fab8a3; stroke:none;" d="M6 5L7 6L6 5z"/>
<path style="fill:#fffdfd; stroke:none;" d="M31 5C31.7457 10.6968 29.5554 13.7112 25 17L25 18C31.8548 17.2361 38.7065 10.0125 31 5z"/>
<path style="fill:#f15e2d; stroke:none;" d="M33 5L33 6C37.3877 11.0373 32.8444 15.4586 28 18L28 19C35.776 24.9284 30.9811 32.285 23 35L23 36C32.4413 35.778 43.2585 26.0169 32 19C38.9805 15.5985 43.2036 7.08335 33 5z"/>
<path style="fill:#f68d6c; stroke:none;" d="M36 5L37 6L36 5M6 6L7 7L6 6M34 6L35 7L34 6z"/>
<path style="fill:#fab8a3; stroke:none;" d="M38 6L39 7L38 6M31 7L31 10L32 10L31 7z"/>
<path style="fill:#fbd4c6; stroke:none;" d="M34 7L35 8L34 7M39 7L40 8L39 7M5 8L6 9L5 8z"/>
<path style="fill:#f68d6c; stroke:none;" d="M35 8L35 11L36 11L35 8z"/>
<path style="fill:#fab8a3; stroke:none;" d="M5 9L6 10L5 9z"/>
<path style="fill:#f68d6c; stroke:none;" d="M5 10L6 11L5 10M9 10L7 15L9 10z"/>
<path style="fill:#fbd4c6; stroke:none;" d="M31 10L32 11L31 10z"/>
<path style="fill:#f68d6c; stroke:none;" d="M16 11L14 15L15 15L16 11M25 11L26 12L25 11z"/>
<path style="fill:#fab8a3; stroke:none;" d="M4 12L5 13L4 12M30 12L31 13L30 12z"/>
<path style="fill:#fbd4c6; stroke:none;" d="M34 12L35 13L34 12z"/>
<path style="fill:#f68d6c; stroke:none;" d="M39 12L40 13L39 12M4 13L5 14L4 13M23 13L12 25L23 13M29 13L30 14L29 13M34 13L35 14L34 13z"/>
<path style="fill:#fab8a3; stroke:none;" d="M39 13L40 14L39 13z"/>
<path style="fill:#f68d6c; stroke:none;" d="M28 14L29 15L28 14z"/>
<path style="fill:#fab8a3; stroke:none;" d="M33 14L34 15L33 14z"/>
<path style="fill:#f68d6c; stroke:none;" d="M38 14L39 15L38 14z"/>
<path style="fill:#fffdfd; stroke:none;" d="M39 14L34 18L34 20C39.7597 25.0869 37.1832 31.0657 30.9961 34.6327C23.6952 38.8419 13.1323 37 5 37L5 36L12 36L12 35L1 29L0 40L40 40L39 14z"/>
<path style="fill:#fbd4c6; stroke:none;" d="M3 15L4 16L3 15z"/>
<path style="fill:#fab8a3; stroke:none;" d="M7 15L8 16L7 15M13 15L14 16L13 15z"/>
<path style="fill:#f68d6c; stroke:none;" d="M27 15L28 16L27 15z"/>
<path style="fill:#fab8a3; stroke:none;" d="M32 15L33 16L32 15z"/>
<path style="fill:#fbd4c6; stroke:none;" d="M38 15L39 16L38 15z"/>
<path style="fill:#fab8a3; stroke:none;" d="M3 16L4 17L3 16z"/>
<path style="fill:#f68d6c; stroke:none;" d="M7 16L8 17L7 16M12 16L11 18L13 18L12 16z"/>
<path style="fill:#fbd4c6; stroke:none;" d="M26 16L27 17L26 16z"/>
<path style="fill:#fab8a3; stroke:none;" d="M31 16L32 17L31 16z"/>
<path style="fill:#f68d6c; stroke:none;" d="M36 16L37 17L36 16z"/>
<path style="fill:#fbd4c6; stroke:none;" d="M37 16L38 17L37 16z"/>
<path style="fill:#f68d6c; stroke:none;" d="M3 17L4 18L3 17z"/>
<path style="fill:#fab8a3; stroke:none;" d="M6 17L5 20L6 17M24 17L25 18L24 17M29 17L30 18L29 17M35 17L36 18L35 17M11 18L12 19L11 18z"/>
<path style="fill:#f68d6c; stroke:none;" d="M25 18L26 19L25 18z"/>
<path style="fill:#fbd4c6; stroke:none;" d="M26 18L27 19L26 18z"/>
<path style="fill:#fab8a3; stroke:none;" d="M27.3333 18.6667L27.6667 19.3333L27.3333 18.6667z"/>
<path style="fill:#f68d6c; stroke:none;" d="M33 18L32 20L33 18z"/>
<path style="fill:#fbd4c6; stroke:none;" d="M2 19L3 20L2 19z"/>
<path style="fill:#f68d6c; stroke:none;" d="M6 19L7 20L6 19z"/>
<path style="fill:#fab8a3; stroke:none;" d="M10 19L11 20L10 19z"/>
<path style="fill:#fbd4c6; stroke:none;" d="M28.3333 19.6667L28.6667 20.3333L28.3333 19.6667z"/>
<path style="fill:#f68d6c; stroke:none;" d="M29 19L30 20L29 19z"/>
<path style="fill:#fab8a3; stroke:none;" d="M33 19L34 20L33 19M2 20L3 21L2 20z"/>
<path style="fill:#fbd4c6; stroke:none;" d="M5 20L6 21L5 20z"/>
<path style="fill:#f68d6c; stroke:none;" d="M9.66667 20.3333L10.3333 20.6667L9.66667 20.3333z"/>
<path style="fill:#fffdfd; stroke:none;" d="M29 20C29.9924 27.4246 25.9008 31.795 19 34L19 35C26.7896 34.595 37.7014 27.2725 29 20z"/>
<path style="fill:#fbd4c6; stroke:none;" d="M30 20L31 21L30 20z"/>
<path style="fill:#fab8a3; stroke:none;" d="M35 20L36 21L35 20z"/>
<path style="fill:#f68d6c; stroke:none;" d="M2 21L3 22L2 21z"/>
<path style="fill:#fab8a3; stroke:none;" d="M4 21L5 22L4 21z"/>
<path style="fill:#f68d6c; stroke:none;" d="M5 21L6 22L5 21z"/>
<path style="fill:#fab8a3; stroke:none;" d="M9 21L10 22L9 21M14 21L15 22L14 21z"/>
<path style="fill:#fbd4c6; stroke:none;" d="M31 21L32 22L31 21M36 21L37 22L36 21M4 22L5 23L4 22z"/>
<path style="fill:#fab8a3; stroke:none;" d="M8 22L7 25L8 25L8 22M13 22L14 23L13 22z"/>
<path style="fill:#fbd4c6; stroke:none;" d="M29 22L29 26L30 26L29 22z"/>
<path style="fill:#fab8a3; stroke:none;" d="M32 22L33 23L32 22M1 23L2 24L1 23z"/>
<path style="fill:#f68d6c; stroke:none;" d="M3 23L4 24L3 23z"/>
<path style="fill:#fab8a3; stroke:none;" d="M4 23L5 24L4 23z"/>
<path style="fill:#f68d6c; stroke:none;" d="M8 23L9 24L8 23z"/>
<path style="fill:#fab8a3; stroke:none;" d="M12 23L13 24L12 23M37 23L38 24L37 23z"/>
<path style="fill:#f68d6c; stroke:none;" d="M1 24L2 25L1 24z"/>
<path style="fill:#fffdfd; stroke:none;" d="M3 24L4 25L3 24z"/>
<path style="fill:#f68d6c; stroke:none;" d="M6 24L7 25L6 24z"/>
<path style="fill:#fbd4c6; stroke:none;" d="M11 24L12 25L11 24z"/>
<path style="fill:#f68d6c; stroke:none;" d="M17 25L17 26L21 25L17 25M37 24L37 27L38 27L37 24M2 25L4 27L2 25z"/>
<path style="fill:#fbd4c6; stroke:none;" d="M3 25L4 26L3 25M6 25L7 26L6 25z"/>
<path style="fill:#fab8a3; stroke:none;" d="M10 25L11 26L10 25z"/>
<path style="fill:#fbd4c6; stroke:none;" d="M0 26L1 27L0 26M2 26L3 27L2 26M5 26L6 27L5 26z"/>
<path style="fill:#f68d6c; stroke:none;" d="M8 26L5 30L8 26z"/>
<path style="fill:#fbd4c6; stroke:none;" d="M9 26L10 27L9 26z"/>
<path style="fill:#f68d6c; stroke:none;" d="M15.3333 26.6667L15.6667 27.3333L15.3333 26.6667z"/>
<path style="fill:#fab8a3; stroke:none;" d="M16 26L17 27L16 26M0 27L3 29L3 28L0 27z"/>
<path style="fill:#f68d6c; stroke:none;" d="M1 27L2 28L1 27z"/>
<path style="fill:#fffdfd; stroke:none;" d="M2 27L3 28L2 27z"/>
<path style="fill:#fab8a3; stroke:none;" d="M4.66667 27.3333L5.33333 27.6667L4.66667 27.3333z"/>
<path style="fill:#fbd4c6; stroke:none;" d="M8 27L9 28L8 27z"/>
<path style="fill:#f68d6c; stroke:none;" d="M13.3333 27.6667L13.6667 28.3333L13.3333 27.6667z"/>
<path style="fill:#fab8a3; stroke:none;" d="M14 27L15 28L14 27M28 27L29 28L28 27M32 27L33 28L32 27M37 27L38 28L37 27z"/>
<path style="fill:#f68d6c; stroke:none;" d="M0 28L1 29L0 28M3 28L2 30L3 28z"/>
<path style="fill:#fbd4c6; stroke:none;" d="M4 28L5 29L4 28M7 28L8 29L7 28z"/>
<path style="fill:#fab8a3; stroke:none;" d="M12 28L13 29L12 28z"/>
<path style="fill:#fbd4c6; stroke:none;" d="M37 28L38 29L37 28z"/>
<path style="fill:#f15e2d; stroke:none;" d="M0 29L1 30L0 29z"/>
<path style="fill:#fbd4c6; stroke:none;" d="M3 29L2 31L3 29z"/>
<path style="fill:#fab8a3; stroke:none;" d="M6 29L7 30L6 29M10.6667 29.3333L11.3333 29.6667L10.6667 29.3333z"/>
<path style="fill:#fbd4c6; stroke:none;" d="M27 29L28 30L27 29z"/>
<path style="fill:#fab8a3; stroke:none;" d="M31 29L32 30L31 29z"/>
<path style="fill:#f68d6c; stroke:none;" d="M36 29L37 30L36 29z"/>
<path style="fill:#fab8a3; stroke:none;" d="M3 30L3 31L6 31L3 30M8.66667 30.3333L9.33333 30.6667L8.66667 30.3333z"/>
<path style="fill:#f68d6c; stroke:none;" d="M17 30L17 31L21 31L17 30z"/>
<path style="fill:#fbd4c6; stroke:none;" d="M26 30L27 31L26 30M30 30L31 31L30 30M36 30L37 31L36 30M4 31L5 32L4 31z"/>
<path style="fill:#fab8a3; stroke:none;" d="M6 31L7 32L6 31z"/>
<path style="fill:#fbd4c6; stroke:none;" d="M7 31L8 32L7 31z"/>
<path style="fill:#f68d6c; stroke:none;" d="M13.3333 31.6667L13.6667 32.3333L13.3333 31.6667z"/>
<path style="fill:#fab8a3; stroke:none;" d="M14.6667 31.3333L15.3333 31.6667L14.6667 31.3333z"/>
<path style="fill:#f68d6c; stroke:none;" d="M16 31L17 32L16 31M24 31L25 32L24 31z"/>
<path style="fill:#fbd4c6; stroke:none;" d="M29 31L30 32L29 31z"/>
<path style="fill:#fab8a3; stroke:none;" d="M35 31L36 32L35 31z"/>
<path style="fill:#fbd4c6; stroke:none;" d="M5.33333 32.6667L5.66667 33.3333L5.33333 32.6667z"/>
<path style="fill:#f68d6c; stroke:none;" d="M6 32L7 33L6 32M9.33333 32.6667L9.66667 33.3333L9.33333 32.6667z"/>
<path style="fill:#fab8a3; stroke:none;" d="M10 32L11 33L10 32z"/>
<path style="fill:#fbd4c6; stroke:none;" d="M11 32L12 33L11 32z"/>
<path style="fill:#fab8a3; stroke:none;" d="M12 32L13 33L12 32M23 32L24 33L23 32M28 32L29 33L28 32M34 32L35 33L34 32M6 33L7 34L6 33z"/>
<path style="fill:#fbd4c6; stroke:none;" d="M7 33L8 34L7 33z"/>
<path style="fill:#fab8a3; stroke:none;" d="M8 33L9 34L8 33z"/>
<path style="fill:#f68d6c; stroke:none;" d="M20 33L21 34L20 33z"/>
<path style="fill:#fab8a3; stroke:none;" d="M21 33L22 34L21 33z"/>
<path style="fill:#fbd4c6; stroke:none;" d="M26 33L27 34L26 33z"/>
<path style="fill:#f68d6c; stroke:none;" d="M27 33L28 34L27 33z"/>
<path style="fill:#fab8a3; stroke:none;" d="M33 33L34 34L33 33z"/>
<path style="fill:#f68d6c; stroke:none;" d="M6 34L7 35L6 34M11 34L11 35L16 35L11 34z"/>
<path style="fill:#fab8a3; stroke:none;" d="M16 34L16 35L21 36L21 35L16 34z"/>
<path style="fill:#fbd4c6; stroke:none;" d="M18 34L19 35L18 34z"/>
<path style="fill:#fab8a3; stroke:none;" d="M24 34L25 35L24 34z"/>
<path style="fill:#f68d6c; stroke:none;" d="M25 34L26 35L25 34M31 34L32 35L31 34z"/>
<path style="fill:#fbd4c6; stroke:none;" d="M12 35L12 36L18 36L12 35z"/>
<path style="fill:#f68d6c; stroke:none;" d="M6 36L6 37L25 37L6 36z"/>
<path style="fill:#fab8a3; stroke:none;" d="M29 35L30 36L29 35z"/>
<path style="fill:#fbd4c6; stroke:none;" d="M5 36L6 37L5 36z"/>
<path style="fill:#fab8a3; stroke:none;" d="M25.6667 36.3333L26.3333 36.6667L25.6667 36.3333z"/>
<path style="fill:#fbd4c6; stroke:none;" d="M27 36L28 37L27 36z"/>
</svg>
