<svg xmlns="http://www.w3.org/2000/svg" width="69" height="69" viewBox="43 48 56 69"><defs><linearGradient x1="80.5%" y1="85.6%" x2="45.8%" y2="37.7%" id="a"><stop stop-color="#CE5DCB" offset="0%"/><stop stop-color="#C558CC" offset="20.9%"/><stop stop-color="#AC4ACF" offset="55.3%"/><stop stop-color="#8534D4" offset="98.5%"/><stop stop-color="#8333D4" offset="100%"/></linearGradient><linearGradient x1="0%" y1="50%" x2="100%" y2="50%" id="b"><stop stop-color="#FF5667" offset="2.4%"/><stop stop-color="#FC8B82" offset="65.9%"/><stop stop-color="#FBA28E" offset="100%"/></linearGradient><linearGradient x1="0%" y1="50%" x2="100%" y2="50%" id="c"><stop stop-color="#00B874" offset="0%"/><stop stop-color="#29D3A2" offset="51.3%"/><stop stop-color="#53DFB6" offset="68.2%"/><stop stop-color="#9FF4D9" offset="100%"/></linearGradient><linearGradient x1="0%" y1="50%" x2="100%" y2="50%" id="d"><stop stop-color="#FCD77E" offset="0%"/><stop stop-color="#FEA500" offset="52.4%"/><stop stop-color="#FF5B00" offset="100%"/></linearGradient></defs><g fill="none"><path d="M4.6 46A15.8 15.8 0 0 0 27 46l.6-.6c3.1-3.1-3-19.3 0-22.4l-23 23Z" fill="url(#a)" transform="translate(43 48)"/><path d="m28.2 22.4-.6.6c-3 3 3.1 19.3 0 22.4l23-23a15.8 15.8 0 0 0-22.4 0" fill="url(#b)" transform="translate(43 48)"/><path d="M4.6 23.6a15.8 15.8 0 0 0 0 22.4l23.6-23.6a15.8 15.8 0 0 0 0-22.4L4.6 23.6Z" fill="url(#c)" transform="translate(43 48)"/><path d="M27 46a15.8 15.8 0 0 0 0 22.3l23.6-23.5a15.8 15.8 0 0 0 0-22.4L27 46Z" fill="url(#d)" transform="translate(43 48)"/></g></svg>