<svg width="512" height="512" viewBox="0 0 512 512" fill="none" xmlns="http://www.w3.org/2000/svg">
<rect width="510.67" height="510.67" fill="url(#paint0_linear_1449_9534)"/>
<path fill-rule="evenodd" clip-rule="evenodd" d="M314.112 255.77L155.963 97.5926C152.143 93.6747 147.583 90.5546 142.547 88.4128C137.511 86.271 132.101 85.1504 126.628 85.116C121.156 85.0817 115.732 86.1342 110.67 88.2126C105.608 90.2911 101.009 93.3539 97.1396 97.2237C93.2705 101.093 90.2083 105.693 88.1307 110.755C86.053 115.818 85.0013 121.242 85.0365 126.714C85.0717 132.186 86.1931 137.597 88.3357 142.632C90.4783 147.668 93.5994 152.227 97.518 156.047L196.971 255.5L97.518 354.954C89.7603 362.704 85.3992 373.218 85.3939 384.184C85.3887 395.15 89.7398 405.669 97.4901 413.427C105.24 421.184 115.755 425.545 126.721 425.551C137.687 425.556 148.205 421.205 155.963 413.454L314.112 255.77ZM322.342 131.465C321.261 141.987 323.464 152.584 328.649 161.803C333.833 171.022 341.744 178.409 351.296 182.951C360.848 187.492 371.572 188.965 381.994 187.167C392.417 185.369 402.027 180.388 409.505 172.909C416.983 165.43 421.962 155.818 423.758 145.395C425.553 134.972 424.078 124.249 419.535 114.698C414.991 105.147 407.602 97.2372 398.383 92.0547C389.163 86.8721 378.565 84.6715 368.044 85.7545C356.336 86.97 345.404 92.1765 337.082 100.5C328.76 108.824 323.555 119.758 322.342 131.465ZM349.638 291.294L413.344 355.009H413.316C421.066 362.76 425.421 373.271 425.421 384.232C425.421 395.192 421.066 405.704 413.316 413.454C405.566 421.204 395.054 425.559 384.094 425.559C373.133 425.559 362.621 421.204 354.871 413.454L291.193 349.748L349.638 291.294Z" fill="black"/>
<defs>
<linearGradient id="paint0_linear_1449_9534" x1="0" y1="255.335" x2="510.67" y2="255.335" gradientUnits="userSpaceOnUse">
<stop stop-color="#B4E300"/>
<stop offset="1" stop-color="#6EC800"/>
</linearGradient>
</defs>
</svg>
