<svg xmlns="http://www.w3.org/2000/svg" width="72" height="72" viewBox="0 0 72 72" fill="#09C4BC">
  <path d="M49.62 17.778l6.876-6.948-1.51-1.493c-12.18-12.06-31.903-11.96-43.963.22C-.537 21.232-.917 39.827 9.79 51.97l-6.876 6.946 1.508 1.493c12.18 12.057 31.904 11.958 43.964-.222 11.558-11.672 11.94-30.268 1.234-42.412m-35.58-5.232c9.91-10.01 25.81-10.57 36.387-1.625l-3.922 3.96C38.09 8.044 25.698 8.585 17.91 16.452c-7.79 7.863-8.2 20.26-1.283 28.61L12.78 48.95c-9.05-10.49-8.646-26.395 1.26-36.402m31.328 44.65C35.458 67.21 19.556 67.772 8.98 58.83l3.92-3.962c8.416 6.836 20.808 6.296 28.596-1.57 7.79-7.864 8.2-20.26 1.284-28.61l3.846-3.884c9.05 10.487 8.648 26.39-1.257 36.4m72.594-31.766l6.283-.032.024"></path>
</svg>