<?xml version="1.0" encoding="UTF-8" standalone="no"?>
<svg
   xmlns:dc="http://purl.org/dc/elements/1.1/"
   xmlns:cc="http://creativecommons.org/ns#"
   xmlns:rdf="http://www.w3.org/1999/02/22-rdf-syntax-ns#"
   xmlns:svg="http://www.w3.org/2000/svg"
   xmlns="http://www.w3.org/2000/svg"
   width="22"
   height="20.20833"
   viewBox="0 0 5.8208334 5.3467874"
   version="1.1"
   id="svg8">
  <defs
     id="defs2">
    <clipPath
       clipPathUnits="userSpaceOnUse"
       id="clipPath5422">
      <path
         d="M 0,65 H 700 V 0 H 0 Z"
         id="path5420" />
    </clipPath>
    <clipPath
       clipPathUnits="userSpaceOnUse"
       id="clipPath7555">
      <path
         d="M 0,60 H 600 V 0 H 0 Z"
         id="path7553" />
    </clipPath>
    <clipPath
       clipPathUnits="userSpaceOnUse"
       id="clipPath895">
      <rect
         style="opacity:0.992983;fill:#febd11;stroke-width:1.965"
         id="rect897"
         width="12.275476"
         height="3.6758981"
         x="5.5644331"
         y="0.94426739" />
    </clipPath>
    <clipPath
       clipPathUnits="userSpaceOnUse"
       id="clipPath901">
      <rect
         style="opacity:0.992983;fill:#febd11;stroke-width:1.41368"
         id="rect903"
         width="11.767038"
         height="3.0812659"
         x="5.9768863"
         y="1.0920649" />
    </clipPath>
  </defs>
  <metadata
     id="metadata5">
    <rdf:RDF>
      <cc:Work
         rdf:about="">
        <dc:format>image/svg+xml</dc:format>
        <dc:type
           rdf:resource="http://purl.org/dc/dcmitype/StillImage" />
        <dc:title></dc:title>
      </cc:Work>
    </rdf:RDF>
  </metadata>
  <g
     id="layer1"
     clip-path="url(#clipPath901)"
     transform="matrix(1.3899895,0,0,1.3899895,-7.4900056,-1.0425954)">
    <g
       id="g7541"
       transform="matrix(0.07594459,0,0,-0.07594459,-0.52916667,5.0270834)">
      <g
         transform="matrix(1.0693174,0,0,1.0693174,-12.954916,-1.0873781)"
         id="g8133">
        <g
           id="g7549">
          <g
             clip-path="url(#clipPath7555)"
             id="g7551">
            <g
               transform="translate(92.6983,30.0962)"
               id="g7639">
              <path
                 id="path7641"
                 style="fill:#003974;fill-opacity:1;fill-rule:nonzero;stroke:none"
                 d="m 0,0 c 0,9.888 9.321,17.904 20.818,17.904 11.497,0 20.817,-8.016 20.817,-17.904 0,-9.888 -9.32,-17.903 -20.817,-17.903 C 9.321,-17.903 0,-9.888 0,0" />
            </g>
            <g
               transform="translate(110.9888,42.2509)"
               id="g7643">
              <path
                 id="path7645"
                 style="fill:#e82629;fill-opacity:1;fill-rule:nonzero;stroke:none"
                 d="m 0,0 4.835,1.598 0.024,-26.146 -4.877,-1.634 z" />
            </g>
            <g
               transform="translate(129.171,28.292)"
               id="g7647">
              <path
                 id="path7649"
                 style="fill:#ffffff;fill-opacity:1;fill-rule:nonzero;stroke:none"
                 d="m 0,0 c -0.453,-3.74 -2.551,-7.518 -7.131,-7.525 -2.675,-0.005 -4.765,1.826 -6.211,4.067 v 2.594 c 1.811,-0.899 3.503,-1.863 5.555,-1.893 2.53,-0.037 4.816,0.936 5.762,2.757 z m -15.313,-2.348 c -2.101,-2.533 -4.132,-5.12 -7.937,-5.12 -5.375,0 -7.922,5.196 -7.922,9.541 0,4.174 1.992,9.115 7.227,9.115 2.27,0 4.458,-1.39 5.76,-2.858 l -0.003,-3.543 c -1.089,0.732 -3.527,1.451 -5.121,1.478 -3.319,0.055 -6.247,-1.384 -6.195,-4.661 0.035,-2.257 2.27,-3.791 4.493,-3.791 3.408,0 5.471,3.112 7.196,5.475 0.482,0.617 1.838,2.431 2.05,2.722 1.915,2.677 4.133,5.121 7.938,5.121 4.482,0 6.997,-3.613 7.71,-7.333 h -2.021 c -0.814,1.206 -2.379,1.945 -3.922,1.945 -3.522,0 -5.627,-3.241 -7.386,-5.626 0,0 -1.37,-1.867 -1.867,-2.465" />
            </g>
          </g>
        </g>
        <text
           id="text7659"
           style="font-variant:normal;font-weight:normal;font-stretch:normal;font-size:10.9297px;font-family:Roboto;-inkscape-font-specification:Roboto-Regular;writing-mode:lr-tb;fill:#003974;fill-opacity:1;fill-rule:nonzero;stroke:none"
           transform="matrix(1,0,0,-1,21.1499,32.3672)"><tspan
             id="tspan7655"
             y="0"
             x="0 7.0059376 13.301445 19.596952 25.422482 31.717989 41.368916 47.238163">Consumer</tspan><tspan
             id="tspan7657"
             y="11.082716"
             x="12.842398 19.301849 22.154501 28.450008 34.548782 40.844288 46.746326">Finance</tspan></text>
      </g>
    </g>
  </g>
</svg>
