<svg width="36" height="24" xmlns="http://www.w3.org/2000/svg"><g fill="none" fill-rule="evenodd"><rect fill="#D26161" width="36" height="24" rx="2"/><g fill="#FFF"><path d="M16.543 14.996v-1.1244h-2.5366V8.996H12.72v6h3.823zm2.141 0v-6h-1.2773v6h1.2773zm6.5577 0v-6h-1.2773v3.769l-2.7796-3.769h-1.3134v6h1.2774v-3.913l2.8606 3.913h1.2323zm6.324 0l-2.5458-3.1844 2.3837-2.8156h-1.5743l-2.123 2.6717V8.996h-1.2773v6h1.2775v-1.844l.4678-.5668 1.817 2.4108h1.5743zM9.1092 9.75L9.5 9H5.3905L5 9.75h1.2408c.5642 0 .9397.2098 1.1472.5H5.3905L5 11h2.5697c-.0665.5177-.4937 1-1.2355 1H5.25v.75c.5803 0 .396-.1383 1.831 2.25H8.25l-1.4908-2.25c.6263-.099 1.624-.6037 1.73-1.75h.62l.3908-.75H8.4137c-.0595-.1768-.1504-.3458-.271-.5h.9666z"/></g></g></svg>