<svg width="297" height="375" viewBox="0 0 297 375" fill="none" xmlns="http://www.w3.org/2000/svg">
<g clip-path="url(#clip0)">
<path d="M49.9161 275.525C50.6598 275.806 51.4053 276.083 52.1517 276.357L51.3136 278.611C50.5601 278.334 49.8074 278.055 49.0567 277.771L49.9161 275.525ZM58.9159 278.876C59.6698 279.172 60.4198 279.477 61.1654 279.793L60.2151 282.003C59.4897 281.695 58.76 281.398 58.0265 281.11L58.9159 278.876ZM67.7349 283.163L67.8304 283.225L67.957 283.307L68.0829 283.39L68.2081 283.473L68.3329 283.557L68.457 283.642L68.5805 283.727L68.7035 283.812L68.8258 283.899L68.9475 283.985L69.0686 284.073L69.1891 284.161L69.3087 284.25L69.4279 284.339L69.5464 284.429L69.6642 284.519L69.778 284.608L68.2911 286.5L68.1892 286.421L68.0828 286.339L67.9758 286.258L67.8681 286.177L67.7595 286.097L67.6504 286.017L67.5405 285.938L67.4298 285.859L67.3184 285.78L67.2064 285.702L67.0937 285.624L66.9802 285.547L66.866 285.47L66.7511 285.394L66.6356 285.318L66.5194 285.242L66.4239 285.181L67.7349 283.163ZM74.7646 290.37L74.8422 290.515L74.9121 290.649L74.9809 290.784L75.0485 290.92L75.115 291.057L75.1804 291.194L75.2447 291.333L75.3079 291.472L75.3698 291.613L75.4306 291.754L75.4903 291.896L75.5489 292.039L75.6063 292.183L75.6624 292.328L75.7174 292.474L75.7712 292.621L75.8097 292.729L73.5437 293.534L73.5125 293.446L73.4663 293.32L73.419 293.195L73.3708 293.07L73.3217 292.947L73.2715 292.824L73.2204 292.702L73.1682 292.581L73.1151 292.461L73.0611 292.342L73.0062 292.223L72.9502 292.106L72.8932 291.989L72.8354 291.873L72.7767 291.757L72.7169 291.643L72.6494 291.516L74.7646 290.37ZM42.8234 216.001C42.8503 215.875 42.869 215.78 42.8798 215.715C43.1851 213.893 42.7459 212.502 41.8933 211.481C41.0693 210.494 39.8775 209.908 38.6209 209.641C38.4526 209.606 38.3299 209.582 38.2505 209.569C35.936 209.192 34.5061 209.417 33.5085 210.264C32.5154 211.107 32.157 212.388 31.9081 214.194L31.3993 217.966C31.1768 219.616 30.9922 220.984 30.8957 221.622C30.2588 225.829 30.0379 230.72 31.1254 234.7C31.9944 237.88 33.6842 240.495 36.6196 241.815C40.1292 244.854 46.0591 246.168 51.1843 247.305C52.1102 247.51 49.2032 246.865 52.0904 247.51C54.3251 248.009 55.119 248.911 55.1136 250.127C55.1066 251.685 54.1041 253.885 52.9053 256.42C48.773 265.159 57.987 270.126 67.1084 275.043C69.0822 276.107 71.0514 277.169 72.7679 278.202C73.3315 278.543 74.0673 278.361 74.4114 277.796C74.7555 277.231 74.5777 276.496 74.0141 276.155C72.1281 275.02 70.1958 273.979 68.2592 272.935C60.1257 268.55 51.9098 264.121 55.0701 257.438C56.3901 254.646 57.494 252.204 57.5033 250.126C57.5142 247.705 56.2342 245.976 52.6279 245.17C50.3399 244.659 53.2538 245.313 51.7154 244.972C46.823 243.887 41.1554 242.63 38.1221 239.944C38.0899 239.911 38.0558 239.88 38.0196 239.851C35.8112 237.821 35.4616 234.664 36.0552 231.275C37.0101 225.821 40.358 219.834 42.625 216.514C42.7335 216.355 42.7987 216.179 42.8234 216.001ZM33.4011 233.92C32.4542 230.328 32.6714 225.852 33.2594 221.967C33.3632 221.282 33.5469 219.92 33.7684 218.278C33.8426 217.728 33.9255 217.113 34.2841 214.512C34.4551 213.271 34.6461 212.438 35.0614 212.085C35.4724 211.737 36.3105 211.684 37.8534 211.935C37.9839 211.957 38.0705 211.972 38.1099 211.98C38.8879 212.145 39.6027 212.48 40.0561 213.023C40.4809 213.532 40.6903 214.281 40.5145 215.33L40.507 215.375C38.121 218.915 34.7017 225.123 33.6956 230.87C33.5143 231.905 33.4101 232.927 33.4011 233.92ZM276.867 227.534C276.967 226.748 277.055 225.961 277.137 225.174L279.525 225.41C279.441 226.215 279.351 227.019 279.249 227.822L276.867 227.534ZM255.412 253.02C256.194 252.899 256.975 252.774 257.754 252.634L258.166 254.997C257.368 255.14 256.568 255.268 255.767 255.392L255.412 253.02ZM264.43 250.805C265.118 250.511 265.785 250.176 266.428 249.792L267.657 251.848C266.92 252.288 266.157 252.673 265.368 253.01L264.43 250.805ZM271.124 245.164C271.539 244.51 271.933 243.844 272.301 243.163L274.413 244.294C274.018 245.024 273.596 245.739 273.151 246.44L271.124 245.164ZM274.983 236.732C275.212 235.987 275.421 235.238 275.61 234.482L277.94 235.05C277.741 235.849 277.519 236.643 277.277 237.43L274.983 236.732ZM267.795 217.929C267.864 217.27 267.386 216.683 266.727 216.617C266.068 216.551 265.478 217.032 265.409 217.691C265.057 221.075 264.571 224.508 263.646 227.904C262.73 231.267 261.38 234.605 259.299 237.836C257.453 240.701 255.045 242.397 252.28 243.5C249.416 244.643 246.125 245.178 242.674 245.696C236.753 246.584 235.075 248.025 235.506 251.001C235.709 252.396 236.494 254.033 237.524 256.178L237.752 256.653C239.201 259.679 238.642 261.794 236.939 263.479C235.015 265.384 231.669 266.895 227.99 268.481C227.092 268.868 226.147 269.261 225.323 269.604C222.638 270.722 221.259 271.296 220.152 272.386C218.984 273.537 218.382 275.004 217.142 278.023C216.804 278.845 216.431 279.753 216.34 279.971C216.084 280.582 216.37 281.282 216.979 281.535C217.589 281.788 218.291 281.498 218.547 280.887C219.057 279.667 219.217 279.277 219.362 278.925C220.48 276.203 221.023 274.88 221.833 274.082C222.598 273.329 223.834 272.814 226.24 271.813C226.959 271.513 227.784 271.17 228.933 270.675C232.834 268.994 236.394 267.379 238.62 265.175C241.068 262.752 241.903 259.776 239.907 255.608L239.68 255.133C238.742 253.178 238.026 251.688 237.876 250.649C237.69 249.372 238.901 248.679 243.014 248.062C246.615 247.522 250.056 246.962 253.159 245.724C256.362 244.445 259.157 242.473 261.309 239.132C263.543 235.664 264.986 232.102 265.961 228.523C266.927 224.975 267.432 221.422 267.795 217.929Z" fill="#F0F0F0"/>
<path d="M22.993 229.745C23.085 230.532 23.183 231.318 23.2925 232.102L20.9142 232.42C20.8023 231.618 20.7021 230.815 20.6081 230.011L22.993 229.745Z" fill="#F0F0F0"/>
<path d="M42.7159 256.963C43.4967 257.093 44.2795 257.209 45.063 257.32L44.7376 259.696C43.935 259.582 43.1332 259.464 42.3334 259.331L42.7159 256.963Z" fill="#F0F0F0"/>
<path d="M34.0072 254.229C34.6548 254.605 35.3261 254.932 36.0181 255.217L35.1075 257.433C34.314 257.106 33.5463 256.731 32.8037 256.3L34.0072 254.229Z" fill="#F0F0F0"/>
<path d="M28.0528 247.673C28.4294 248.349 28.8312 249.011 29.2542 249.659L27.2431 250.96C26.7892 250.265 26.3592 249.555 25.955 248.83L28.0528 247.673Z" fill="#F0F0F0"/>
<path d="M24.636 239.034C24.8343 239.788 25.052 240.534 25.2909 241.276L23.0061 242.002C22.7536 241.218 22.5219 240.427 22.3133 239.631L24.636 239.034Z" fill="#F0F0F0"/>
<path d="M49.9161 275.525C50.6598 275.806 51.4053 276.083 52.1517 276.357L51.3136 278.611C50.5601 278.334 49.8074 278.055 49.0567 277.771L49.9161 275.525ZM58.9159 278.876C59.6698 279.172 60.4198 279.477 61.1654 279.793L60.2151 282.003C59.4897 281.695 58.76 281.398 58.0265 281.11L58.9159 278.876ZM67.7349 283.163L67.8304 283.225L67.957 283.307L68.0829 283.39L68.2081 283.473L68.3329 283.557L68.457 283.642L68.5805 283.727L68.7035 283.812L68.8258 283.899L68.9475 283.985L69.0686 284.073L69.1891 284.161L69.3087 284.25L69.4279 284.339L69.5464 284.429L69.6642 284.519L69.778 284.608L68.2911 286.5L68.1892 286.421L68.0828 286.339L67.9758 286.258L67.8681 286.177L67.7595 286.097L67.6504 286.017L67.5405 285.938L67.4298 285.859L67.3184 285.78L67.2064 285.702L67.0937 285.624L66.9802 285.547L66.866 285.47L66.7511 285.394L66.6356 285.318L66.5194 285.242L66.4239 285.181L67.7349 283.163ZM74.7646 290.37L74.8422 290.515L74.9121 290.649L74.9809 290.784L75.0485 290.92L75.115 291.057L75.1804 291.194L75.2447 291.333L75.3079 291.472L75.3698 291.613L75.4306 291.754L75.4903 291.896L75.5489 292.039L75.6063 292.183L75.6624 292.328L75.7174 292.474L75.7712 292.621L75.8097 292.729L73.5437 293.534L73.5125 293.446L73.4663 293.32L73.419 293.195L73.3708 293.07L73.3217 292.947L73.2715 292.824L73.2204 292.702L73.1682 292.581L73.1151 292.461L73.0611 292.342L73.0062 292.223L72.9502 292.106L72.8932 291.989L72.8354 291.873L72.7767 291.757L72.7169 291.643L72.6494 291.516L74.7646 290.37ZM42.8234 216.001C42.8503 215.875 42.869 215.78 42.8798 215.715C43.1851 213.893 42.7459 212.502 41.8933 211.481C41.0693 210.494 39.8775 209.908 38.6209 209.641C38.4526 209.606 38.3299 209.582 38.2505 209.569C35.936 209.192 34.5061 209.417 33.5085 210.264C32.5154 211.107 32.157 212.388 31.9081 214.194L31.3993 217.966C31.1768 219.616 30.9922 220.984 30.8957 221.622C30.2588 225.829 30.0379 230.72 31.1254 234.7C31.9944 237.88 33.6842 240.495 36.6196 241.815C40.1292 244.854 46.0591 246.168 51.1843 247.305C52.1102 247.51 49.2032 246.865 52.0904 247.51C54.3251 248.009 55.119 248.911 55.1136 250.127C55.1066 251.685 54.1041 253.885 52.9053 256.42C48.773 265.159 57.987 270.126 67.1084 275.043C69.0822 276.107 71.0514 277.169 72.7679 278.202C73.3315 278.543 74.0673 278.361 74.4114 277.796C74.7555 277.231 74.5777 276.496 74.0141 276.155C72.1281 275.02 70.1958 273.979 68.2592 272.935C60.1257 268.55 51.9098 264.121 55.0701 257.438C56.3901 254.646 57.494 252.204 57.5033 250.126C57.5142 247.705 56.2342 245.976 52.6279 245.17C50.3399 244.659 53.2538 245.313 51.7154 244.972C46.823 243.887 41.1554 242.63 38.1221 239.944C38.0899 239.911 38.0558 239.88 38.0196 239.851C35.8112 237.821 35.4616 234.664 36.0552 231.275C37.0101 225.821 40.358 219.834 42.625 216.514C42.7335 216.355 42.7987 216.179 42.8234 216.001ZM33.4011 233.92C32.4542 230.328 32.6714 225.852 33.2594 221.967C33.3632 221.282 33.5469 219.92 33.7684 218.278C33.8426 217.728 33.9255 217.113 34.2841 214.512C34.4551 213.271 34.6461 212.438 35.0614 212.085C35.4724 211.737 36.3105 211.684 37.8534 211.935C37.9839 211.957 38.0705 211.972 38.1099 211.98C38.8879 212.145 39.6027 212.48 40.0561 213.023C40.4809 213.532 40.6903 214.281 40.5145 215.33L40.507 215.375C38.121 218.915 34.7017 225.123 33.6956 230.87C33.5143 231.905 33.4101 232.927 33.4011 233.92ZM71.368 219.862L71.8897 225.246L68.8757 230.144C68.5279 230.709 68.7029 231.447 69.2666 231.792C69.4324 231.894 69.6134 231.95 69.795 231.964L75.1334 232.766L78.6603 236.764C79.0979 237.257 79.8546 237.3 80.3503 236.86C80.4512 236.771 80.5335 236.668 80.597 236.557L83.4503 231.563L88.6806 229.154C89.2836 228.876 89.5495 228.163 89.2744 227.562C89.2081 227.417 89.1164 227.292 89.007 227.189L85.3827 223.376L85.0463 217.907C85.0072 217.247 84.4404 216.747 83.7804 216.789C83.6143 216.8 83.4581 216.844 83.318 216.915L83.3173 216.913L78.1802 219.484L72.7749 218.476C72.1249 218.355 71.497 218.785 71.3726 219.435C71.3448 219.58 71.3446 219.724 71.368 219.862ZM74.3093 225.411L73.894 221.125L78.083 221.906C78.3443 221.965 78.6273 221.937 78.8861 221.807L82.767 219.865L83.0163 223.917C83.0212 224.206 83.1301 224.494 83.3447 224.719L86.1581 227.679L82.1064 229.545L82.1074 229.547C81.8871 229.648 81.6949 229.817 81.5653 230.044L79.3516 233.919L76.6449 230.851C76.4668 230.65 76.2193 230.508 75.9325 230.465L71.8641 229.854L74.1398 226.155L74.1366 226.153C74.269 225.938 74.3351 225.681 74.3093 225.411ZM276.867 227.534C276.967 226.748 277.055 225.961 277.137 225.174L279.525 225.41C279.441 226.215 279.351 227.019 279.249 227.822L276.867 227.534ZM255.412 253.02C256.194 252.899 256.975 252.774 257.754 252.634L258.166 254.997C257.368 255.14 256.568 255.268 255.767 255.392L255.412 253.02ZM264.43 250.805C265.118 250.511 265.785 250.176 266.428 249.792L267.657 251.848C266.92 252.288 266.157 252.673 265.368 253.01L264.43 250.805ZM271.124 245.164C271.539 244.51 271.933 243.844 272.301 243.163L274.413 244.294C274.018 245.024 273.596 245.739 273.151 246.44L271.124 245.164ZM274.983 236.732C275.212 235.987 275.421 235.238 275.61 234.482L277.94 235.05C277.741 235.849 277.519 236.643 277.277 237.43L274.983 236.732ZM267.795 217.929C267.864 217.27 267.386 216.683 266.727 216.617C266.068 216.551 265.478 217.032 265.409 217.691C265.057 221.075 264.571 224.508 263.646 227.904C262.73 231.267 261.38 234.605 259.299 237.836C257.453 240.701 255.045 242.397 252.28 243.5C249.416 244.643 246.125 245.178 242.674 245.696C236.753 246.584 235.075 248.025 235.506 251.001C235.709 252.396 236.494 254.033 237.524 256.178L237.752 256.653C239.201 259.679 238.642 261.794 236.939 263.479C235.015 265.384 231.669 266.895 227.99 268.481C227.092 268.868 226.147 269.261 225.323 269.604C222.638 270.722 221.259 271.296 220.152 272.386C218.984 273.537 218.382 275.004 217.142 278.023C216.804 278.845 216.431 279.753 216.34 279.971C216.084 280.582 216.37 281.282 216.979 281.535C217.589 281.788 218.291 281.498 218.547 280.887C219.057 279.667 219.217 279.277 219.362 278.925C220.48 276.203 221.023 274.88 221.833 274.082C222.598 273.329 223.834 272.814 226.24 271.813C226.959 271.513 227.784 271.17 228.933 270.675C232.834 268.994 236.394 267.379 238.62 265.175C241.068 262.752 241.903 259.776 239.907 255.608L239.68 255.133C238.742 253.178 238.026 251.688 237.876 250.649C237.69 249.372 238.901 248.679 243.014 248.062C246.615 247.522 250.056 246.962 253.159 245.724C256.362 244.445 259.157 242.473 261.309 239.132C263.543 235.664 264.986 232.102 265.961 228.523C266.927 224.975 267.432 221.422 267.795 217.929ZM134.42 209.288C135.148 208.872 135.891 208.494 136.652 208.142L137.646 210.322C136.948 210.644 136.267 210.992 135.599 211.373L134.42 209.288ZM133.391 289.463C132.983 288.669 132.639 287.809 132.449 286.934L134.797 286.419C134.943 287.09 135.22 287.758 135.532 288.366L133.391 289.463ZM133.839 279.485C133.963 278.774 134.039 278.059 134.018 277.337L136.418 277.25C136.443 278.134 136.357 279.008 136.205 279.88L133.839 279.485ZM122.598 266.841C122.393 266.411 122.273 265.954 122.218 265.481C122.155 264.889 122.199 264.337 122.314 263.753L122.316 263.739L124.666 264.221L124.667 264.215C124.561 264.754 124.534 265.311 124.775 265.818L122.598 266.841ZM125.64 256.934C126.044 256.25 126.443 255.564 126.834 254.873L128.924 256.044C128.526 256.749 128.118 257.449 127.706 258.146L125.64 256.934ZM129.737 248.581C129.943 247.892 130.097 247.197 130.158 246.48L130.157 246.484L132.552 246.644L132.544 246.743L132.536 246.824L132.528 246.905L132.519 246.987L132.51 247.068L132.499 247.15L132.488 247.232C132.477 247.314 132.465 247.395 132.452 247.477C132.353 248.08 132.214 248.667 132.039 249.252L129.737 248.581ZM127.364 241.873C126.644 241.489 125.922 241.102 125.22 240.687L126.452 238.621C127.125 239.017 127.812 239.386 128.501 239.753L127.364 241.873ZM120.234 234.509C120.09 233.608 120.096 232.713 120.189 231.806L122.577 232.045C122.505 232.745 122.495 233.432 122.606 234.128L120.234 234.509ZM122.003 224.542C122.285 223.759 122.592 222.987 122.93 222.227L125.121 223.198L125.122 223.195C124.809 223.904 124.523 224.619 124.261 225.348L122.003 224.542ZM126.798 215.795C127.324 215.137 127.875 214.509 128.46 213.903L130.181 215.568C129.648 216.12 129.146 216.692 128.667 217.291L126.798 215.795Z" fill="#F0F0F0"/>
<path d="M22.993 229.745C23.085 230.532 23.183 231.318 23.2925 232.102L20.9142 232.42C20.8023 231.618 20.7021 230.815 20.6081 230.011L22.993 229.745Z" fill="#F0F0F0"/>
<path d="M42.7159 256.963C43.4967 257.093 44.2795 257.209 45.063 257.32L44.7376 259.696C43.935 259.582 43.1332 259.464 42.3334 259.331L42.7159 256.963Z" fill="#F0F0F0"/>
<path d="M34.0072 254.229C34.6548 254.605 35.3261 254.932 36.0181 255.217L35.1075 257.433C34.314 257.106 33.5463 256.731 32.8037 256.3L34.0072 254.229Z" fill="#F0F0F0"/>
<path d="M28.0528 247.673C28.4294 248.349 28.8312 249.011 29.2542 249.659L27.2431 250.96C26.7892 250.265 26.3592 249.555 25.955 248.83L28.0528 247.673Z" fill="#F0F0F0"/>
<path d="M24.636 239.034C24.8343 239.788 25.052 240.534 25.2909 241.276L23.0061 242.002C22.7536 241.218 22.5219 240.427 22.3133 239.631L24.636 239.034Z" fill="#F0F0F0"/>
<path d="M245.169 181.64L231.235 190.276C230.882 190.495 230.773 190.956 230.989 191.307L239.557 205.195C239.774 205.546 240.235 205.653 240.587 205.435L254.522 196.798C254.874 196.58 254.984 196.118 254.767 195.767L246.199 181.88C245.983 181.529 245.521 181.421 245.169 181.64ZM232.657 191.152L245.316 183.307L253.099 195.923L240.44 203.768L232.657 191.152ZM243.693 187.834L237.423 191.72C237.07 191.939 236.961 192.4 237.177 192.751L241.033 199.001C241.25 199.352 241.711 199.459 242.063 199.241L248.334 195.354C248.686 195.136 248.796 194.674 248.579 194.323L244.723 188.074C244.507 187.723 244.045 187.615 243.693 187.834ZM238.845 192.596L243.84 189.501L246.911 194.478L241.916 197.574L238.845 192.596ZM261.392 125.456L260.372 131.278L254.714 132.983C254.082 133.174 253.722 133.841 253.911 134.472C254.006 134.791 254.222 135.039 254.495 135.183L254.493 135.186L259.708 137.925L259.554 143.822C259.537 144.483 260.058 145.03 260.718 145.044C261.054 145.051 261.36 144.92 261.583 144.702L261.584 144.703L265.824 140.581L271.384 142.52C272.007 142.739 272.692 142.411 272.915 141.788C273.034 141.454 272.997 141.103 272.841 140.815L270.27 135.571L273.861 130.872C274.264 130.347 274.166 129.597 273.642 129.197C273.376 128.994 273.051 128.92 272.743 128.966L266.902 129.821L263.557 124.974C263.182 124.432 262.436 124.299 261.892 124.677C261.618 124.868 261.447 125.152 261.394 125.456L261.392 125.456ZM262.604 132.408L263.246 128.747L265.339 131.781C265.587 132.151 266.034 132.366 266.505 132.296L270.182 131.757L267.948 134.68C267.657 135.033 267.581 135.536 267.795 135.971L269.426 139.296L265.944 138.082C265.524 137.928 265.034 138.017 264.691 138.351L262.023 140.945L262.118 137.294C262.153 136.834 261.919 136.376 261.485 136.148L258.201 134.423L261.67 133.377C262.135 133.278 262.517 132.905 262.604 132.408Z" fill="#F0F0F0"/>
<path d="M48.7464 168.669L38.9083 172.335C38.5211 172.479 38.3227 172.91 38.4653 173.296L42.0819 183.113C42.2244 183.499 42.6539 183.696 43.0411 183.551L52.8792 179.885C53.2664 179.741 53.4647 179.311 53.3222 178.924L49.7057 169.107C49.5631 168.721 49.1336 168.525 48.7464 168.669ZM40.1255 173.473L48.5611 170.33L51.662 178.747L43.2264 181.89L40.1255 173.473ZM47.0355 172.377L42.6083 174.026C42.2211 174.171 42.0228 174.601 42.1653 174.988L43.7928 179.405C43.9353 179.792 44.3648 179.988 44.752 179.843L49.1792 178.194C49.5664 178.049 49.7647 177.619 49.6222 177.233L47.9947 172.815C47.8522 172.428 47.4227 172.232 47.0355 172.377ZM43.8255 175.164L46.8501 174.037L47.962 177.056L44.9374 178.183L43.8255 175.164ZM21.9134 121.441L22.4352 126.825L19.4211 131.724C19.0733 132.289 19.2484 133.027 19.812 133.372C19.9778 133.473 20.1588 133.529 20.3405 133.544L25.6788 134.346L29.2057 138.343C29.6434 138.837 30.4 138.88 30.8958 138.44C30.9967 138.35 31.079 138.248 31.1424 138.137L33.9957 133.143L39.2261 130.734C39.8291 130.456 40.095 129.743 39.8199 129.142C39.7536 128.997 39.6619 128.872 39.5525 128.769L35.9282 124.955L35.5918 119.487C35.5526 118.827 34.9858 118.327 34.3258 118.369C34.1597 118.38 34.0036 118.424 33.8635 118.494L33.8627 118.493L28.7256 121.064L23.3204 120.056C22.6703 119.935 22.0424 120.364 21.918 121.015C21.8903 121.16 21.89 121.304 21.9134 121.441ZM24.8547 126.991L24.4394 122.705L28.6284 123.486C28.8897 123.545 29.1727 123.517 29.4315 123.387L33.3124 121.444L33.5617 125.497C33.5666 125.786 33.6755 126.074 33.8901 126.299L36.7035 129.259L32.6519 131.125L32.6529 131.127C32.4325 131.228 32.2404 131.397 32.1108 131.623L29.897 135.499L27.1903 132.431C27.0122 132.23 26.7647 132.088 26.4779 132.045L22.4095 131.433L24.6852 127.735L24.682 127.733C24.8144 127.518 24.8805 127.26 24.8547 126.991Z" fill="#F0F0F0"/>
<path d="M234.047 156.751C234.133 156.739 234.219 156.718 234.304 156.687C234.925 156.458 235.246 155.769 235.019 155.149C232.176 147.304 228.536 147.894 227.011 148.453C226.8 148.53 226.67 148.589 226.572 148.633C226.517 148.658 226.538 148.651 226.503 148.665C218.682 151.937 212.213 155.862 207.265 161.169C202.727 166.037 199.498 172.041 197.717 179.732C197.083 182.085 196.919 184.286 197.065 186.44C197.268 189.419 198.059 192.254 199.013 195.271C201.549 203.283 197.342 206.365 191.028 210.991C190.523 211.361 190.002 211.743 189.188 212.349C183.628 216.489 184.346 219.401 187.327 223.414C187.923 224.217 188.611 225.055 189.359 225.966C189.564 226.216 189.775 226.473 190.131 226.911C192.769 230.152 191.905 231.652 189.572 233.553C188.971 234.043 188.37 234.498 187.721 234.989C186.998 235.536 187.708 234.99 186.958 235.562C182.01 239.335 183.959 243.614 187.475 248.235C188.215 249.207 189.094 250.272 189.986 251.353C190.633 252.138 191.288 252.931 191.862 253.655C192.271 254.172 193.024 254.257 193.543 253.845C194.062 253.434 194.151 252.681 193.741 252.164C193.077 251.326 192.453 250.571 191.837 249.824C191.004 248.814 190.183 247.82 189.388 246.775C186.683 243.219 185.1 239.991 188.408 237.468C189.676 236.501 188.935 237.062 189.164 236.888C189.886 236.342 190.555 235.836 191.086 235.403C194.627 232.518 195.945 230.25 191.989 225.387C191.816 225.175 191.509 224.8 191.21 224.436C190.48 223.547 189.809 222.73 189.248 221.975C187.187 219.2 186.703 217.178 190.618 214.262C191.057 213.935 191.761 213.42 192.446 212.918C199.594 207.681 204.357 204.192 201.301 194.538C200.392 191.665 199.639 188.981 199.455 186.259C199.367 184.962 199.407 183.644 199.62 182.274C199.735 181.666 199.86 181.068 199.993 180.481C200.227 179.584 200.537 178.661 200.936 177.706C203.916 170.566 208.923 165.901 214.781 162.743C220.709 159.548 227.537 157.874 234.047 156.751ZM206.846 165.351C207.53 164.461 208.253 163.608 209.016 162.79C213.697 157.767 219.893 154.023 227.421 150.873C227.51 150.836 227.528 150.828 227.549 150.819C227.633 150.781 227.746 150.73 227.831 150.699C228.587 150.421 230.343 150.238 232.242 154.644C225.951 155.802 219.432 157.524 213.655 160.638C211.226 161.946 208.933 163.498 206.846 165.351Z" fill="#F0F0F0"/>
</g>
<defs>
<clipPath id="clip0">
<rect width="297" height="375" fill="white"/>
</clipPath>
</defs>
</svg>
