<svg width="36" height="24" xmlns="http://www.w3.org/2000/svg"><g fill="none" fill-rule="evenodd"><rect fill="#6C61D2" width="36" height="24" rx="2"/><path d="M9.4904 15.75c2.3638 0 3.4684-1.2923 3.4684-3.126V8.25h-1.922v4.319c0 .8725-.5302 1.502-1.5464 1.502-1.0272 0-1.5574-.6295-1.5574-1.502V8.25H6v4.385c0 1.8116 1.1267 3.115 3.4904 3.115zm6.6937-.1325v-2.4743h1.7895c1.6568 0 2.5626-1.1156 2.5626-2.441 0-1.3366-.9057-2.4522-2.5625-2.4522h-3.6893v7.3675h1.9zm1.5023-4.131H16.184V9.9067h1.5023c.508 0 .9168.2872.9168.7953 0 .4972-.4086.7844-.9167.7844zm5.6002 4.131V8.25h-1.9v7.3675h1.9z" fill="#FFF"/><path d="M27.7816 10.4418L27.117 9 25.5 15l1.4416-1.4415L28.5 12.0002" fill="#FF6D00"/><path fill="#34D534" d="M30 12l-1.383-3-.3887 1.4418L28.9468 12l-1.5582 1.5582L27 15"/></g></svg>