<svg width="31" height="25" xmlns="http://www.w3.org/2000/svg" xmlns:xlink="http://www.w3.org/1999/xlink"><title>VPA Icon Copy</title><defs><path d="M0 0h21v12H0V0zm19 0h2v2h-1c-.552 0-1-.444-1-1V0zm0 11c0-.552.444-1 1-1h1v2h-2v-1z" id="a"/><mask id="d" x="0" y="0" width="21" height="12" fill="#fff"><use xlink:href="#a"/></mask><circle id="b" cx="11" cy="11" r="11"/><mask id="e" x="0" y="0" width="22" height="22" fill="#fff"><use xlink:href="#b"/></mask><path d="M11 21c2.21 0 4-4.477 4-10S13.21 1 11 1 7 5.477 7 11s1.79 10 4 10z" id="c"/><mask id="f" x="0" y="0" width="8" height="20" fill="#fff"><use xlink:href="#c"/></mask></defs><g fill="none" fill-rule="evenodd"><g transform="rotate(-30 21.227 -8.312)"><use stroke="#3F8FC5" mask="url(#d)" stroke-width="2" fill="#FFF" xlink:href="#a"/><path d="M17.038 3.605h-1.612c.2.107.353.238.456.394.102.154.17.332.2.53h.956v.602h-.964c-.057.314-.202.586-.434.817-.232.23-.54.395-.923.496.123.066.23.163.32.29l1.807 2.46h-.748c-.15 0-.26-.06-.333-.177l-1.61-2.215c-.048-.07-.1-.12-.156-.15-.057-.03-.144-.045-.262-.045h-.726v-.58h.812c.406 0 .73-.08.975-.245.243-.165.4-.382.473-.653H13v-.6h2.287c-.054-.29-.2-.512-.44-.67-.24-.157-.57-.235-.99-.235h-.848V3h4.028v.605z" fill="#3498DB"/></g><g transform="translate(0 3)"><use stroke="#3F8FC5" mask="url(#e)" stroke-width="2" fill="#EBF7FF" xlink:href="#b"/><use stroke="#3F8FC5" mask="url(#f)" stroke-width="2" fill="#EBF7FF" xlink:href="#c"/><path fill="#3F8FC5" d="M10.5 1h1v20h-1z"/><g fill="#3F8FC5"><path d="M1 8h20v1H1zM1 13h20v1H1z"/></g></g></g></svg>