<svg xmlns="http://www.w3.org/2000/svg" width="532" height="141"><rect id="backgroundrect" width="100%" height="100%" fill="none"/><defs><style>.cls-2{fill:#0069b4}</style></defs><g class="currentLayer"><path d="M186.59001098632814,38.42 zm-17.49,22.69 V7.25 H216.73001098632812 c9.82,0 25.62,1.33 25.62,14.13 c0,6.29 -5.52,10.73 -11.94,12.34 c8,2.4 11.94,6.82 11.94,12.870000000000001 c0,13.2 -15,14.46 -25.62,14.5 l-47.63,0 zm17.49,-22.69 l5,-8.26 a6.92,6.92 0 0 1 5.67,-3 H216.73001098632812 c3.48,0 6.3100000000000005,-1.59 6.3100000000000005,-4.29 S220.23001098632812,18.549999999999997 216.73001098632812,18.549999999999997 H186.59001098632814 V38.42 zm0,0 v22.67 l5,-8.27 a6.93,6.93 0 0 1 5.67,-3 h19.21 c3.64,0.06000000000000001 6.52,-2.52 6.52,-5.67 s-2.8200000000000003,-5.69 -6.52,-5.69 zM284.6300109863281,20.25 l-23.61,40.9 H240.46001098632814 L273.3800109863281,7.25 h22.5 l32.89,53.86 H308.2300109863281 l-5.52,-9.6 H272.2300109863281 L277.2900109863281,43.25 a7,7 0 0 1 5.67,-3 h13.2 L284.6300109863281,20.25 zm143,0 l-23.59,40.9 H383.4300109863281 L416.34001098632814,7.25 h22.5 l32.88,53.86 H451.2300109863281 l-5.53,-9.6 H415.2300109863281 L420.2300109863281,43.25 a6.94,6.94 0 0 1 5.65,-3 h13.22 L427.58001098632815,20.25 zm-67,29.57 c4,0 7.19,-1.9300000000000002 7.19,-5.85 V7.25 H385.2300109863281 V45.59 c0,11.620000000000001 -7.69,15.52 -17.76,15.52 h-29.1 a7,7 0 0 1 -5.66,-3 l-5.06,-8.3 zm142.93,0 c4,0 7.21,-1.9300000000000002 7.21,-5.85 V7.25 H528.2300109863281 V45.59 c0,11.620000000000001 -7.67,15.52 -17.75,15.52 h-29.1 a6.92,6.92 0 0 1 -5.66,-3 l-5.06,-8.3 z" id="svg_1" fill-rule="evenodd" fill="#0069b4"/><path class="cls-2" d="M169.00001098632814,79.04 h43.12 v13.09 H183.94001098632813 v12.84 h25.48 v12.39 H183.94001098632813 v15.58 H169.00001098632814 z" id="svg_2"/><path class="cls-2" d="M222.28001098632814,79.04 h15 v53.9 h-15 z" id="svg_3"/><path class="cls-2" d="M250.23001098632812,79.04 h13.94 l22.18,28.49 V79.04 H301.1300109863281 v53.9 H288.0400109863281 l-23,-29.56 v29.56 H250.23001098632812 z" id="svg_4"/><path class="cls-2" d="M309.6800109863281,124.93 l8.31,-9.93 a27.75,27.75 0 0 0 17.48,6.47 c4,0 6.16,-1.3900000000000001 6.16,-3.7 v-0.15000000000000002 c0,-2.23 -1.77,-3.47 -9.08,-5.16 c-11.48,-2.62 -20.33,-5.85 -20.33,-16.94 v-0.15000000000000002 c0,-10 7.93,-17.25 20.87,-17.25 c9.16,0 16.32,2.46 22.17,7.16 l-7.47,10.55 c-4.93,-3.47 -10.31,-5.32 -15.09,-5.32 c-3.62,0 -5.39,1.54 -5.39,3.47 v0.15000000000000002 c0,2.47 1.85,3.54 9.32,5.24 c12.4,2.6900000000000004 20.09,6.7 20.09,16.79 v0.15000000000000002 c0,11 -8.7,17.55 -21.78,17.55 C325.3800109863281,133.86 316.3000109863281,130.86 309.6800109863281,124.93 z" id="svg_5"/><path class="cls-2" d="M367.0400109863281,79.04 h43.35 V91.75 H381.83001098632815 v8.16 h25.87 v11.78 H381.83001098632815 V120.25 h28.95 v12.7 H367.0400109863281 z" id="svg_6"/><path class="cls-2" d="M421.4800109863281,79.04 h25.49 c8.24,0 13.94,2.16 17.55,5.85 c3.16,3.08 4.78,7.24 4.78,12.55 v0.16000000000000003 c0,8.24 -4.39,13.7 -11.09,16.55 l12.86,18.79 H453.8200109863281 l-10.86,-16.32 h-6.54 v16.32 H421.4800109863281 zM446.2300109863281,104.91999999999999 c5.09,0 8,-2.47 8,-6.4 v-0.15000000000000002 c0,-4.24 -3.08,-6.39 -8.08,-6.39 h-9.78 v12.94 z" id="svg_7"/><path class="cls-2" d="M474.07001098632816,79.04 h16.71 l12.24,34.11 L515.2300109863281,79.04 h16.4 l-21.87,54.29 H495.94001098632816 z" id="svg_8"/><path class="cls-2" d="M114.23001098632812,88.35 c0,19.17 -21.42,21 -36.57,21.09 H64.03001098632812 V92.18 h27.1 V79.01 H64.03001098632812 v-17.9 h30 V47.19 H48.14001098632812 v62.28 H30.61001098632812 V31.189999999999998 h47.07 c14,0 36.57,2 36.57,20.52 c0,9.16 -7.85,15.9 -17,18.21 C108.59001098632814,73.42 114.23001098632812,79.04 114.23001098632812,88.35 zm-43.9,-88.35 a70.33,70.33 0 1 0 70.33,70.33 A70.33,70.33 0 0 0 70.35001098632813,0 z" id="svg_9"/></g></svg>