<svg xmlns="http://www.w3.org/2000/svg" viewBox="0 0 183 47"><g fill-rule="nonzero"><g fill="#000"><path d="M82.466 10.52c.087-.304.174-.63 1.413-.63 3.846 0 4.584 2.672 4.584 4.867 0 1.325-.717 8.017-7.56 8.017-1.02 0-1.543-.13-1.543-.847 0-.348.283-1.304.478-2.02l2.63-9.386zm-3.975-.935c1.108.087 1.673.196 1.673.935 0 .435-.174 1.108-.24 1.347l-2.672 9.604c-.37 1.347-.695 1.412-1.76 1.607v.348H81c6.388 0 9.886-4.02 9.886-8.408 0-2.28-1.347-5.78-6.344-5.78h-6.04v.347zm16.88 11.603c-.847 1.282-1.803 2.477-3.02 2.477-1.02 0-1.02-.956-1.02-1.347 0-1.02 1.716-6.4 1.716-7.018 0-.456-.174-.565-1.37-.565v-.348c.826-.043 2.63-.4 3.476-.543l.065.043-1.912 6.996c-.087.304-.348 1.173-.348 1.434 0 .152.152.326.348.326.26 0 .9-.435 1.782-1.695l.283.24zm-.434-9.67c-.543 0-1.043-.37-1.043-1.13s.5-1.173 1.02-1.173c.717 0 1.086.717 1.086 1.195 0 .434-.348 1.108-1.064 1.108zm10.58 9.647c-1.086 1.456-1.847 2.455-3.02 2.455-1 0-1.043-.652-1.043-1.282 0-.52 1.608-5.823 1.608-6.692 0-.4-.13-.695-.543-.695-1.043 0-2.412 1.87-3.194 3.085-1 1.5-1.282 2.434-2.172 5.388h-1.63l2.13-7.996c0-.326-.217-.565-1.4-.565v-.348l3.52-.673.065.043-1.4 4.54.043.043c1.02-1.608 3.02-4.628 4.823-4.628 1 0 1.5.52 1.5 1.434 0 .934-1.738 6.3-1.738 6.953 0 .326.304.37.348.37.435 0 .978-.695 1.782-1.717l.303.284zm2.78-3.216c.804-1.934 2.28-3.606 3.455-3.606.543 0 .76.413.76.87 0 .174-.108 2.78-4.584 3.694l.37-.957zm4.475 3.107c-1.086.9-2 1.63-3.172 1.63-.913 0-2.042-.5-2.042-1.978 0-.435.1-.87.217-1.325l.608-.087c3.52-.5 5.562-2.26 5.562-3.976 0-.956-.674-1.478-1.782-1.478-3.063 0-6.496 3.65-6.496 6.757 0 1.37.695 3.063 2.977 3.063 2.173 0 4.15-2 4.4-2.347l-.26-.26zm1.326 2.368l1.76-6.344c.217-.804.347-1.542.347-1.738 0-.304-.108-.65-.782-.65-.24 0-.478.065-.717.108v-.37c1.108-.152 2.4-.435 3.368-.587l.065.043-1.064 4.324.043.043.174-.435c.717-1.434 2.37-3.976 3.737-3.976.5 0 1.043.326 1.043 1.064 0 1.13-.782 1.13-1.02 1.13-.934 0-.608-.782-1.13-.782-.673 0-1.977 2.412-2.15 2.738-.826 1.564-1.13 2.542-2.02 5.432h-1.65zm6.865-3.172c.152.956.5 2.955 2.26 2.955 1.216 0 1.564-1.043 1.564-1.76 0-1.434-2.585-3.52-2.585-5.193 0-.673.304-2.412 2.607-2.412.978 0 1.412.37 2.064.37.37 0 .5-.217.608-.392h.304l-.435 3.02h-.348c-.108-1.24-.63-2.5-2.042-2.5-.478 0-1.173.195-1.173 1.26 0 1.37 2.65 3.303 2.65 5.15 0 2.368-2.02 2.912-3.237 2.912-.652 0-1.52-.413-2.15-.413-.304 0-.4.217-.52.457h-.348l.435-3.455h.348zm24.8-6.996c-.043-.608-.24-3.52-3.346-3.52-4.345 0-6.562 5.258-6.562 8.452 0 2.847 1.195 4.65 3.78 4.65 2.455 0 3.976-1.543 5.02-2.564l.37.304c-.804.956-2.738 3.237-5.9 3.237-2.52 0-5.692-1.52-5.692-5.866 0-4.193 3.845-8.995 8.82-8.995 1.564 0 2.9.52 3.4.52.63 0 .76-.26.87-.478h.456l-.804 4.324-.4-.065zm3.997 7.7c-1.108 1.673-1.956 2.716-3.303 2.716-.956 0-1.043-.74-1.043-1.347 0-.457 3.15-11.798 3.15-12.254 0-.564-.913-.564-1.478-.543V9.17a30.82 30.82 0 0 0 3.39-.586l.1.108-3.28 12.58c-.043.196-.217.782-.217 1.02 0 .13 0 .435.326.435.543 0 1-.608 2.064-1.978l.283.196zm10.038.13c-1.37 1.977-1.934 2.542-3.02 2.542-.978 0-1.02-.804-1.02-1.13 0-.4.435-2.216.934-3.998h-.065c-1.478 2.455-3.085 5.17-5.04 5.17-.782 0-1.195-.326-1.195-1.282s1.65-6.432 1.65-7.018c0-.63-.413-.63-1.303-.63v-.303c1.097-.133 2.185-.33 3.26-.587l.065.043-1.978 7.887c-.065.282 0 .738.457.738.934 0 2.303-2.042 3.042-3.172 1.065-1.608 1.543-2.977 2.4-5.302h1.608l-1.716 6.497c-.13.435-.413 1.4-.413 1.717 0 .108.02.348.26.348.413 0 1.02-.76 1.782-1.717l.303.196zm7.887-4.324c0 1.825-2.064 6.4-5.04 6.4-1.02 0-1.02-.565-1.02-.717 0-2.28 2.086-7.54 4.476-7.54 1.37 0 1.586 1.174 1.586 1.847zm-6.04-7.3c1.26.022 1.412.13 1.412.63 0 .304-.195.847-.347 1.456l-2.955 10.885v.087c0 .478 1.673 1.152 2.825 1.152 3.324 0 6.952-3.76 6.952-7.192 0-1.586-1.064-2.63-2.585-2.63-1.955 0-3.324 2.02-4.04 3.15l-.043-.02c.74-2.456 1.738-6.497 2.216-8.278l-.108-.108a47.39 47.39 0 0 1-3.324.5v.368h-.002zM75.5 40.007c1.065-.196 1.4-.26 1.76-1.608l2.672-9.604c.13-.435.24-.956.24-1.347 0-.76-.586-.825-1.52-.934v-.348h5.367v.348c-1.064.196-1.412.24-1.782 1.608l-2.672 9.625c-.13.435-.24.87-.24 1.4 0 .695.543.76 1.478.87v.348H75.5v-.348zm15.752-1.912c-1.087 1.456-1.847 2.456-3.02 2.456-1 0-1.043-.652-1.043-1.282 0-.52 1.608-5.823 1.608-6.692 0-.4-.13-.695-.543-.695-1.043 0-2.412 1.87-3.194 3.085-1 1.5-1.282 2.433-2.173 5.388h-1.63l2.13-7.996c0-.326-.217-.565-1.4-.565v-.348l3.52-.674.065.044-1.4 4.54.043.044c1.02-1.608 3.02-4.628 4.823-4.628 1 0 1.5.522 1.5 1.435 0 .934-1.738 6.3-1.738 6.953 0 .326.304.37.348.37.435 0 .978-.695 1.78-1.716l.304.28zm5.8-6.345h-1.825l-1.912 7.235c-.022.065-.022.108-.022.174 0 .195.108.37.348.37.435 0 1.195-1.02 1.738-1.716l.282.152c-1.108 1.673-1.955 2.63-3.085 2.63-.435 0-1.043-.217-1.043-.87 0-.326.413-1.65.5-2l1.564-5.975H92c-.02-.13-.02-.24.044-.348.13-.196.738-.348 1.108-.543.717-.37 1.76-1.347 2.368-2.108.087-.108.174-.304.37-.26.152-.044.196.152.152.326l-.608 2.238h1.738l-.108.695zm1.933 3.13c.804-1.934 2.282-3.607 3.455-3.607.543 0 .76.413.76.87 0 .174-.1 2.78-4.584 3.694l.368-.956zm4.476 3.107c-1.086.9-2 1.63-3.172 1.63-.913 0-2.042-.5-2.042-1.977 0-.435.108-.87.217-1.325l.608-.087c3.52-.5 5.562-2.26 5.562-3.977 0-.956-.674-1.478-1.782-1.478-3.063 0-6.497 3.65-6.497 6.757 0 1.37.695 3.063 2.977 3.063 2.173 0 4.15-2 4.4-2.346l-.26-.26zm1.76 2.368l1.76-6.344c.217-.804.348-1.543.348-1.738 0-.304-.1-.652-.782-.652-.24 0-.478.065-.717.1v-.37l3.368-.587.065.044-1.064 4.324.043.043.174-.435c.717-1.434 2.368-3.977 3.737-3.977.5 0 1.043.326 1.043 1.065 0 1.13-.782 1.13-1.02 1.13-.934 0-.608-.782-1.13-.782-.674 0-1.978 2.412-2.15 2.738-.826 1.564-1.13 2.542-2.02 5.432h-1.653z"/><path d="M121.9 38.095c-1.086 1.456-1.847 2.456-3.02 2.456-1 0-1.043-.652-1.043-1.282 0-.52 1.608-5.823 1.608-6.692 0-.39-.13-.695-.543-.695-1.042 0-2.412 1.87-3.194 3.085-1 1.5-1.282 2.433-2.173 5.388h-1.63l2.13-7.996c0-.326-.217-.565-1.39-.565v-.348l3.52-.674.065.044-1.39 4.54.043.044c1.02-1.608 3.02-4.628 4.824-4.628 1 0 1.5.522 1.5 1.435 0 .934-1.738 6.3-1.738 6.953 0 .326.304.37.348.37.435 0 .978-.695 1.782-1.716l.304.28z"/><path d="M123.58 37.986c0-1.956 1.956-6.735 4.498-6.735.63 0 1.24.413 1.24 1.456 0 2.13-2.13 6.822-4.433 6.822-.587 0-1.304-.4-1.304-1.543zm7.887-.022c-.978.956-1.413 1.5-1.738 1.5-.174 0-.304-.13-.304-.283 0-.673 2-8.083 2.064-8.343l-.152-.065-1.325.152-.065.065-.217.957h-.043c-.065-.6-.782-1.174-1.716-1.174-2.9 0-6.214 4.063-6.214 7.257 0 .63.065 2.563 2.238 2.563 1.304 0 2.455-.652 4.258-3.302l.043.043c-.348 1.325-.456 1.803-.456 2.303 0 .37 0 .934.913.934.934 0 1.673-.782 2.977-2.4l-.263-.217zm6.453-6.214h-1.825l-1.912 7.235c-.022.065-.022.108-.022.174 0 .195.1.37.348.37.435 0 1.195-1.02 1.738-1.716l.282.152c-1.108 1.673-1.955 2.63-3.085 2.63-.435 0-1.043-.217-1.043-.87 0-.326.413-1.65.5-2l1.564-5.975h-1.608c-.02-.13-.02-.24.044-.348.13-.196.738-.348 1.108-.543.717-.37 1.76-1.347 2.368-2.108.087-.108.174-.304.37-.26.152-.044.195.152.152.326l-.608 2.238h1.738l-.1.695zm4.172 6.367c-.848 1.282-1.803 2.477-3.02 2.477-1.02 0-1.02-.956-1.02-1.347 0-1.02 1.716-6.4 1.716-7.018 0-.457-.174-.565-1.37-.565v-.348c.825-.043 2.628-.4 3.476-.543l.065.044-1.912 6.996c-.087.304-.348 1.173-.348 1.434 0 .152.152.326.348.326.26 0 .9-.435 1.78-1.695l.284.24zm-.435-9.67c-.543 0-1.043-.37-1.043-1.13s.5-1.173 1.02-1.173c.717 0 1.086.717 1.086 1.195.001.434-.347 1.108-1.064 1.108zm7.54 2.78c1.042 0 1.52.956 1.52 2.086 0 2.325-1.716 6.822-4.193 6.822-1.086 0-1.738-.782-1.738-2.02-.001-2.563 1.976-6.887 4.4-6.887zm.152-.457c-3.172 0-6.388 3.5-6.388 6.692 0 1.803.978 3.128 3.28 3.128 3.324 0 6.3-3.932 6.3-6.605-.001-1.433-.674-3.215-3.194-3.215zm12.67 7.325c-1.086 1.456-1.847 2.456-3.02 2.456-1 0-1.043-.652-1.043-1.282 0-.52 1.608-5.823 1.608-6.692 0-.4-.13-.695-.543-.695-1.043 0-2.412 1.87-3.194 3.085-1 1.5-1.282 2.433-2.173 5.388h-1.63l2.13-7.996c0-.326-.217-.565-1.4-.565v-.348l3.52-.674.065.044-1.4 4.54.043.044c1.02-1.608 3.02-4.628 4.824-4.628 1 0 1.5.522 1.5 1.435 0 .934-1.738 6.3-1.738 6.953 0 .326.304.37.348.37.435 0 .978-.695 1.782-1.716l.304.28zm2.107-.1c0-1.956 1.956-6.735 4.498-6.735.63 0 1.238.413 1.238 1.456 0 2.13-2.13 6.822-4.432 6.822-.587 0-1.304-.4-1.304-1.543zm7.887-.022c-.978.956-1.413 1.5-1.738 1.5-.174 0-.304-.13-.304-.283 0-.673 2-8.083 2.064-8.343l-.152-.065-1.326.152-.065.065-.217.957h-.043c-.065-.6-.782-1.174-1.716-1.174-2.9 0-6.214 4.063-6.214 7.257 0 .63.065 2.563 2.238 2.563 1.303 0 2.455-.652 4.258-3.302l.043.043c-.348 1.325-.456 1.803-.456 2.303 0 .37 0 .934.912.934.935 0 1.673-.782 2.977-2.4l-.26-.217zm4.932-.087c-1.108 1.673-1.955 2.716-3.302 2.716-.956 0-1.043-.738-1.043-1.347 0-.456 3.15-11.798 3.15-12.254 0-.565-.913-.565-1.478-.543V26.1a30.59 30.59 0 0 0 3.39-.587l.108.1-3.28 12.58c-.043.195-.217.782-.217 1.02 0 .13 0 .435.326.435.543 0 1-.608 2.064-1.977l.283.195zm3.047-11.873h.223c.207 0 .375.103.375.413 0 .288-.103.494-.37.494h-.228v-.907zm-.608-.022c.266.027.26.022.26.26v1.298c0 .233.005.233-.26.26v.08h.87v-.08c-.27-.027-.26-.027-.26-.26v-.532h.255c.342.505.478.874.652.874h.342v-.05c-.104-.076-.266-.26-.407-.456l-.3-.424c.245-.08.43-.288.43-.564 0-.337-.3-.5-.62-.5h-.95v.08zm2.705.94c0-1.027-.798-1.863-1.83-1.863a1.85 1.85 0 0 0-1.315.545c-.348.35-.54.825-.537 1.318a1.83 1.83 0 0 0 1.852 1.852c1.033 0 1.83-.826 1.83-1.852zm-.3 0c0 .863-.68 1.624-1.532 1.624-.87 0-1.553-.76-1.553-1.624s.68-1.635 1.553-1.635c.86 0 1.532.766 1.532 1.635z"/></g><path d="M48.504 46.08c12.43.06 22.62-10.132 22.534-22.534C71.124 10.806 60.933.614 48.504.618H23.6C11.02.615.83 10.806.67 23.547.83 35.95 11.02 46.14 23.598 46.08h24.906z" fill="#2D4F9E"/><path d="M2.25 23.547C2.375 11.66 11.874 2.16 23.6 2.2c11.712-.04 21.212 9.46 21.347 21.348C44.81 35.097 35.31 44.597 23.6 44.5c-11.725.097-21.224-9.404-21.348-20.953z" fill="#fff"/><path d="M18.854 10.897c-4.913 2.217-8.6 6.957-8.697 12.65.098 5.48 3.608 10.305 8.697 12.255V10.897zm9.488 24.906c5.077-1.95 8.586-6.777 8.697-12.255-.11-5.816-3.62-10.643-8.697-12.65v24.905z" fill="#2D4F9E"/></g></svg>