<svg xmlns="http://www.w3.org/2000/svg" width="271.6" height="71.5" viewBox="0 0 71.9 18.9"><path d="m0 0 11.5-22.8-24.2-22.8z" style="fill:#008c44;fill-opacity:1;fill-rule:nonzero;stroke:none" transform="matrix(.3528 0 0 -.3528 67.8 1.4)"/><path d="m0 0 11.5-22.8-24.2-22.8Z" style="fill:#f47920;fill-opacity:1;fill-rule:nonzero;stroke:none" transform="matrix(.3528 0 0 -.3528 65 1.4)"/><path d="m0 0 11.5 41.3h18.3c5.7 0 9.5-1 11.5-2.8 1.9-1.9 2.3-4.9 1.1-9.1-.7-2.5-1.8-4.6-3.2-6.3a15 15 0 0 0-5.8-4c2-.4 3.3-1.4 3.9-2.8.5-1.5.5-3.6-.2-6.3l-1.4-5.8v-.1c-.4-1.6-.3-2.5.3-2.6L35.6 0H23.2a37.5 37.5 0 0 0 .6 4.3l1.1 4.1c.6 2.2.6 3.6 0 4.5-.5.9-1.7 1.3-3.6 1.3H16L12 0Zm18.7 23.5h5.5c2 0 3.4.3 4.3.9a5 5 0 0 1 2 3c.4 1.4.3 2.4-.3 3-.6.6-2 .9-4.1.9h-5.3z" style="fill:#1b3281;fill-opacity:1;fill-rule:nonzero;stroke:none" transform="matrix(.3528 0 0 -.3528 0 14.6)"/><path d="m0 0-8.4-30.5h-10.3l1.3 4.5a20 20 0 0 0-5.6-4c-1.8-.8-3.8-1.3-5.8-1.3-1.7 0-3.2.3-4.3 1a6 6 0 0 0-2.7 2.7c-.5 1-.8 2.4-.7 4 .1 1.5.7 4.1 1.7 7.8L-30.4 0h11.2l-4.4-15.7c-.6-2.3-.8-4-.5-4.8.4-1 1.2-1.4 2.6-1.4 1.4 0 2.6.5 3.6 1.6 1 1 1.8 2.6 2.4 4.6L-11.2 0Z" style="fill:#1b3281;fill-opacity:1;fill-rule:nonzero;stroke:none" transform="matrix(.3528 0 0 -.3528 27 3.8)"/><path d="m0 0 11.4 41.3h15.8c3.5 0 6.1-.2 8-.7a10 10 0 0 0 4.6-2.1 8.4 8.4 0 0 0 2.6-4.8c.3-2 .1-4.2-.6-6.8a19.5 19.5 0 0 0-6.7-10.6 19.2 19.2 0 0 0-12-3.7h-7.3L12.3 0Zm18.6 22.7h4c2.5 0 4.3.3 5.3 1 1 .6 1.8 1.7 2.2 3.2.5 1.6.4 2.7-.3 3.3-.7.6-2.3 1-5 1H21z" style="fill:#1b3281;fill-opacity:1;fill-rule:nonzero;stroke:none" transform="matrix(.3528 0 0 -.3528 25.5 14.6)"/><path d="m0 0 .1 2.9a20.4 20.4 0 0 0-5.5-3c-1.8-.7-3.8-1-5.9-1-3.1 0-5.3.9-6.6 2.5-1.3 1.7-1.5 4.1-.6 7.2.8 3 2.3 5.2 4.4 6.7 2 1.4 5.6 2.4 10.6 3 .6.2 1.4.3 2.5.4 3.6.4 5.7 1.4 6.1 3 .3.9.1 1.5-.4 1.9-.5.4-1.5.6-3 .6-1 0-2-.2-2.8-.7a4.5 4.5 0 0 1-1.7-2.3h-11c1 3.4 3 6 6 7.7 3 1.8 7 2.6 12 2.6 2.3 0 4.4-.2 6.2-.7 1.9-.4 3.2-1 4-1.8 1.2-1 1.8-2.1 2-3.3.2-1.3 0-3-.7-5.3L11 3.4c-.1-.5-.2-1-.1-1.5.1-.4.3-.8.6-1l-.2-.9Zm2.7 13.6c-1.2-.5-2.7-1-4.6-1.4-3-.9-4.8-2-5.1-3.3-.3-.8-.2-1.5.2-2 .5-.5 1.2-.7 2.2-.7 1.9 0 3.3.4 4.5 1.4 1 1 2 2.4 2.5 4.4l.3 1z" style="fill:#1b3281;fill-opacity:1;fill-rule:nonzero;stroke:none" transform="matrix(.3528 0 0 -.3528 45 14.6)"/><path d="m0 0 2.5 9h3.2c1 0 2 .2 2.5.6.6.4 1 1 1.3 2l.2 1.3v1.7L8 42.5h11.4L19.2 24l10 18.5h10.5L22 12l-4.3-7C16.8 4 16 3 15.2 2.4c-1.1-1-2.3-1.6-3.6-2A50.2 50.2 0 0 0 0 0" style="fill:#1b3281;fill-opacity:1;fill-rule:nonzero;stroke:none" transform="matrix(.3528 0 0 -.3528 49 18.8)"/></svg>