<svg xmlns="http://www.w3.org/2000/svg" width="256" height="160" preserveAspectRatio="xMidYMid" xmlns:v="https://vecta.io/nano"><path d="M50.042.001h63.779c8.903 0 14.44 7.257 12.363 16.189L96.49 143.675c-2.096 8.901-11.009 16.164-19.918 16.164H12.799c-8.89 0-14.44-7.263-12.363-16.164L30.142 16.19C32.219 7.257 41.128.001 50.042.001" fill="#e21836"/><path d="M108.513.001h73.344c8.901 0 4.888 7.257 2.794 16.189l-29.689 127.486c-2.083 8.901-1.433 16.164-10.353 16.164H71.265c-8.92 0-14.44-7.263-12.345-16.164L88.607 16.19C90.715 7.257 99.606.001 108.513.001" fill="#00447c"/><path d="M178.948.001h63.779c8.915 0 14.453 7.257 12.359 16.189l-29.689 127.486c-2.096 8.901-11.016 16.164-19.929 16.164h-63.749c-8.92 0-14.453-7.263-12.363-16.164L159.048 16.19c2.077-8.932 10.98-16.189 19.9-16.189" fill="#007b84"/><path d="M66.698 40.856c-6.559.067-8.496 0-9.114-.146l-4.676 21.563c-.953 4.13-1.646 7.075-4.001 8.976-1.337 1.105-2.898 1.638-4.707 1.638-2.909 0-4.603-1.444-4.888-4.183l-.054-.941.886-5.564 5.477-21.064a1.79 1.79 0 0 0 .067-.28c-9.041.079-10.644 0-10.754-.146-.061.201-.284 1.354-.284 1.354l-4.743 20.969-.407 1.778-.788 5.817c0 1.726.339 3.134 1.014 4.325 2.161 3.776 8.325 4.342 11.811 4.342 4.493 0 8.707-.954 11.555-2.697 4.943-2.921 6.237-7.487 7.39-11.544l.535-2.082 5.598-21.837c.031-.14.044-.213.086-.28zm16.28 15.588a12.64 12.64 0 0 0-5.155 1.208c-.687.353-1.337.76-2.022 1.166l.619-2.234-.339-.376c-4.015.813-4.914.922-8.623 1.444l-.311.207c-.431 3.571-.813 6.256-2.41 13.274l-1.872 7.779.171.328a92.24 92.24 0 0 1 8.258-.146l.267-.291c.42-2.15.474-2.654 1.404-7.008l1.797-8.216c.825-.382 1.64-.759 2.417-.759 1.851 0 1.626 1.615 1.555 2.259-.079 1.08-.754 4.609-1.446 7.639l-.462 1.956-.996 4.28.14.286a88.84 88.84 0 0 1 8.088-.146l.376-.291c.578-3.358.748-4.256 1.774-9.145l.516-2.246c1.003-4.396 1.506-6.625.748-8.441-.802-2.035-2.727-2.526-4.494-2.526zm18.187 4.603c-1.991.382-3.261.637-4.524.802l-4.396.65-.152.138-.14.11c-.201 1.433-.34 2.672-.606 4.129-.225 1.506-.572 3.218-1.136 5.677-.437 1.883-.662 2.539-.911 3.201-.243.662-.51 1.306-1.001 3.157l.115.171.096.157 4.185-.157c1.208-.044 2.459 0 4.396.011l.169-.138.182-.152c.28-1.67.322-2.119.493-2.933.169-.874.462-2.083 1.178-5.313l1.068-4.578 1.112-4.578-.054-.183-.073-.169zm.042-6.206c-1.809-1.068-4.985-.729-7.123.746-2.131 1.446-2.374 3.498-.571 4.58 1.778 1.038 4.967.729 7.086-.759 2.127-1.477 2.392-3.51.608-4.567zm10.943 24.734c3.661 0 7.414-1.009 10.238-4.003 2.173-2.428 3.17-6.041 3.515-7.529 1.124-4.931.249-7.233-.85-8.636-1.67-2.138-4.62-2.823-7.681-2.823-1.841 0-6.224.182-9.649 3.339-2.459 2.277-3.596 5.368-4.281 8.331-.692 3.019-1.488 8.454 3.51 10.476 1.542.662 3.765.844 5.198.844zm-.286-11.095c.844-3.734 1.841-6.868 4.384-6.868 1.993 0 2.138 2.332 1.251 6.078-.159.832-.886 3.924-1.87 5.24-.687.972-1.5 1.561-2.399 1.561-.267 0-1.858 0-1.883-2.361-.012-1.166.225-2.357.516-3.65zm23.191 10.615l.286-.291c.406-2.15.473-2.655 1.371-7.008l1.816-8.216c.827-.384 1.628-.76 2.43-.76 1.839 0 1.615 1.615 1.542 2.259-.067 1.082-.742 4.609-1.446 7.639l-.437 1.956-1.02 4.281.14.286c3.759-.201 4.858-.201 8.076-.146l.389-.291c.564-3.359.717-4.258 1.774-9.145l.504-2.248c1.007-4.396 1.517-6.624.771-8.44-.825-2.035-2.762-2.526-4.505-2.526a12.58 12.58 0 0 0-5.156 1.208c-.673.353-1.348.759-2.01 1.166l.577-2.234-.309-.378c-4.014.815-4.931.923-8.636 1.446l-.284.207c-.449 3.571-.815 6.254-2.411 13.274l-1.87 7.779.169.328c3.807-.201 4.943-.201 8.241-.146zm27.617.145l1.652-7.99 1.269-5.198s.376-.522.752-.729h.553c5.222 0 11.118 0 15.74-3.4 3.145-2.332 5.295-5.775 6.254-9.96.249-1.026.432-2.246.432-3.467 0-1.603-.322-3.188-1.251-4.427-2.357-3.297-7.05-3.358-12.468-3.383l-2.671.025c-6.935.086-9.716.061-10.859-.079l-.278 1.404-2.484 11.532-6.224 25.631c6.055-.073 8.538-.073 9.582.042zm4.603-20.452l2.629-11.446.085-.589.037-.449 1.056.109 5.575.48c2.15.832 3.036 2.975 2.417 5.774-.564 2.557-2.223 4.707-4.354 5.746-1.755.88-3.905.953-6.12.953h-1.433l.109-.577zm16.445 9.905c-.698 2.975-1.5 8.41 3.473 10.347 1.586.675 3.007.875 4.451.802 1.525-.082 2.938-.847 4.247-1.948l-.354 1.359.225.291c3.577-.151 4.687-.151 8.562-.121l.351-.267c.566-3.327 1.099-6.557 2.57-12.921l2.167-9.103-.115-.334c-4.001.742-5.071.9-8.92 1.446l-.292.238-.117.903c-.599-.967-1.466-1.792-2.804-2.307-1.712-.673-5.732.194-9.187 3.341-2.428 2.246-3.594 5.324-4.256 8.276zm8.404.182c.857-3.667 1.841-6.77 4.39-6.77 1.612 0 2.461 1.488 2.288 4.025l-.46 2.054-.801 3.252c-.274.74-.592 1.438-.942 1.903-.656.93-2.217 1.506-3.115 1.506-.255 0-1.828 0-1.883-2.319-.012-1.155.225-2.344.522-3.65zm43.886-12.109l-.309-.353c-3.959.802-4.676.93-8.314 1.421l-.267.267c-.012.044-.023.11-.042.171l-.012-.061c-2.708 6.248-2.629 4.9-4.833 9.819l-.025-.602-.552-10.663-.347-.353c-4.148.802-4.245.93-8.076 1.421l-.298.267c-.042.127-.042.267-.067.42l.025.054c.479 2.447.364 1.901.844 5.763l.746 5.673 1.051 9.455c-2.587 4.269-3.199 5.884-5.69 9.63l.017.037-1.754 2.773c-.201.292-.382.493-.637.578-.28.138-.644.163-1.149.163h-.972l-1.444 4.804 4.954.086c2.909-.012 4.737-1.373 5.721-3.201l3.115-5.338h-.05l.328-.376c2.096-4.511 18.036-31.856 18.036-31.856zm-52.29 63.088h-2.102l7.779-25.729h2.581l.819-2.651.079 2.947c-.096 1.822 1.337 3.437 5.102 3.17h4.354l1.499-4.954h-1.638c-.942 0-1.379-.238-1.324-.748l-.079-2.999h-8.063v.016c-2.607.054-10.392.25-11.968.67-1.907.491-3.917 1.937-3.917 1.937l.79-2.654h-7.543l-1.572 5.265-7.883 26.123h-1.53l-1.5 4.919h15.023l-.504 1.64h7.403l.491-1.64h2.077l1.628-5.312zm-6.164-20.501c-1.208.334-3.456 1.348-3.456 1.348l1.999-6.576h5.993l-1.446 4.791s-1.851.109-3.09.437zm.115 9.394s-1.883.236-3.122.516c-1.22.37-3.509 1.536-3.509 1.536l2.064-6.843h6.024l-1.458 4.791zm-3.358 11.168h-6.011l1.743-5.775h5.993l-1.724 5.775zm14.477-15.959h8.665l-1.245 4.033h-8.78l-1.318 4.409h7.683l-5.817 8.191c-.407.602-.773.815-1.178.984-.407.207-.942.449-1.561.449h-2.131l-1.464 4.828h5.575c2.898 0 4.609-1.318 5.873-3.048l3.989-5.46.857 5.544c.182 1.038.928 1.646 1.433 1.883.558.28 1.135.76 1.949.832l1.925.067h2.739l1.645-5.404h-1.08c-.62 0-1.688-.104-1.87-.298-.182-.236-.182-.6-.28-1.153l-.869-5.556h-3.558l1.561-1.858h8.763l1.348-4.409h-8.113l1.264-4.033h8.088l1.5-4.973h-24.114l-1.475 4.973zm-73.185 17.082l2.022-6.728h8.312l1.519-5.004h-8.32l1.27-4.141h8.13l1.506-4.846h-20.343l-1.475 4.846h4.622l-1.233 4.141h-4.634l-1.536 5.09h4.62l-2.696 8.901c-.364 1.178.171 1.628.51 2.175.347.533.698.886 1.488 1.087.815.182 1.373.291 2.131.291h9.371l1.67-5.544-4.154.571c-.802 0-3.024-.096-2.781-.838zm.953-32.208l-2.106 3.807c-.451.832-.857 1.348-1.222 1.586-.322.201-.959.284-1.883.284h-1.099l-1.469 4.87h3.65c1.755 0 3.103-.644 3.746-.965.692-.37.874-.159 1.408-.675l1.233-1.068h11.398l1.513-5.071h-8.343l1.457-2.769h-8.283zm16.827 32.306c-.194-.28-.054-.773.243-1.799l3.115-10.311h11.082l3.54-.096c.815-.086 1.701-.376 2.666-.899.996-.547 1.506-1.124 1.937-1.786.48-.661 1.251-2.106 1.914-4.336l3.916-13.049-11.501.067s-3.541.522-5.1 1.099c-1.573.644-3.821 2.441-3.821 2.441l1.038-3.577h-7.104l-9.946 32.986c-.353 1.281-.589 2.211-.644 2.769-.019.602.759 1.197 1.262 1.646.595.449 1.475.376 2.319.449.888.067 2.15.109 3.893.109h5.46l1.676-5.659-4.888.462c-.522 0-.9-.28-1.057-.516zm5.368-19.074h11.64l-.74 2.319c-.104.054-.353-.115-1.537.025h-10.08l.717-2.344zm2.332-7.779h11.738l-.844 2.794s-5.533-.054-6.419.109c-3.899.675-6.176 2.758-6.176 2.758l1.701-5.66zm8.829 17.865c-.096.347-.249.558-.462.717-.236.152-.619.207-1.189.207h-1.659l.098-2.825h-6.899l-.28 13.809c-.011.996.085 1.573.815 2.035.729.577 2.975.65 5.999.65h4.323l1.561-5.169-3.764.207-1.251.073c-.171-.073-.334-.14-.516-.322-.159-.157-.426-.061-.382-1.057l.03-3.54 3.947-.163c2.131 0 3.042-.693 3.82-1.354.742-.633.984-1.36 1.264-2.344l.662-3.134h-5.424l-.692 2.211z" fill="#fefefe"/></svg>