<svg version="1" baseProfile="tiny" xmlns="http://www.w3.org/2000/svg" viewBox="0 0 186 94"><g fill="#1A1F71"><path d="M11.1 33.5L1.3 3.4h4.2l4.7 14.8c1.3 4.1 2.4 7.7 3.2 11.3h.1c.8-3.5 2.1-7.3 3.4-11.2L22 3.4h4.2L15.4 33.5 11.1 33.5 11.1 33.5zM28.3 23.4c.1 5.3 3.5 7.5 7.4 7.5 2.8 0 4.5-.5 6-1.1l.7 2.8c-1.4.6-3.8 1.3-7.2 1.3-6.7 0-10.6-4.4-10.6-10.9s3.8-11.7 10.1-11.7c7.1 0 8.9 6.2 8.9 10.2 0 .8-.1 1.4-.1 1.8L28.3 23.4 28.3 23.4zM39.8 20.6c.1-2.5-1-6.4-5.5-6.4-4 0-5.7 3.7-6 6.4H39.8zM46.7 18.6c0-2.5 0-4.7-.2-6.7h3.4l.1 4.2h.2c1-2.9 3.4-4.7 6-4.7.4 0 .8 0 1.1.1v3.7c-.4-.1-.8-.1-1.3-.1-2.8 0-4.7 2.1-5.3 5-.1.5-.2 1.2-.2 1.8v11.5h-3.9V18.6H46.7zM64.1 5.8c0 1.3-.9 2.4-2.5 2.4-1.4 0-2.4-1.1-2.4-2.4 0-1.4 1-2.5 2.5-2.5C63.1 3.3 64.1 4.4 64.1 5.8M59.7 11.9h3.9v21.6h-3.9V11.9zM68.8 33.5V14.9h-3v-3h3v-1c0-3 .7-5.8 2.5-7.6 1.5-1.4 3.4-2 5.3-2 1.4 0 2.6.3 3.4.6l-.5 3c-.6-.3-1.4-.5-2.5-.5-3.3 0-4.2 2.9-4.2 6.3v1.2H78v3h-5.2v18.6H68.8zM86.1 5.8c.1 1.3-.9 2.4-2.5 2.4-1.4 0-2.4-1.1-2.4-2.4 0-1.4 1-2.5 2.5-2.5C85.2 3.3 86.1 4.4 86.1 5.8M81.7 11.9h3.9v21.6h-3.9V11.9zM92.6 23.4c.1 5.3 3.5 7.5 7.4 7.5 2.8 0 4.5-.5 6-1.1l.7 2.8c-1.4.6-3.8 1.3-7.2 1.3-6.7 0-10.6-4.4-10.6-10.9S92.7 11.3 99 11.3c7.1 0 8.9 6.2 8.9 10.2 0 .8-.1 1.4-.1 1.8L92.6 23.4 92.6 23.4zM104.1 20.6c0-2.5-1-6.4-5.5-6.4-4 0-5.7 3.7-6 6.4H104.1zM129.7 1.8v26.1c0 1.9 0 4.1.2 5.6h-3.5l-.2-3.8h-.1c-1.2 2.4-3.8 4.2-7.4 4.2-5.2 0-9.2-4.4-9.2-11 0-7.2 4.4-11.6 9.7-11.6 3.3 0 5.5 1.6 6.5 3.3h.1V1.8H129.7zM125.8 20.7c0-.5 0-1.2-.2-1.7-.6-2.5-2.7-4.6-5.7-4.6-4.1 0-6.5 3.6-6.5 8.4 0 4.4 2.1 8 6.4 8 2.6 0 5-1.7 5.8-4.7.1-.5.2-1.1.2-1.7V20.7zM144.2 33.5c.1-1.5.2-3.7.2-5.6V1.8h3.9v13.6h.1c1.4-2.4 3.9-4 7.4-4 5.4 0 9.2 4.5 9.1 11 0 7.7-4.9 11.6-9.7 11.6-3.1 0-5.6-1.2-7.2-4.1h-.1l-.2 3.6H144.2zM148.3 24.8c0 .5.1 1 .2 1.4.8 2.7 3 4.6 5.9 4.6 4.1 0 6.6-3.4 6.6-8.3 0-4.3-2.2-8-6.4-8-2.7 0-5.2 1.8-6 4.8-.1.4-.2 1-.2 1.6v3.9H148.3zM169.2 11.9l4.7 12.8c.5 1.4 1 3.1 1.4 4.4h.1c.4-1.3.8-3 1.4-4.5l4.3-12.7h4.2l-5.9 15.4c-2.8 7.4-4.7 11.2-7.4 13.5-1.9 1.7-3.8 2.4-4.8 2.5l-1-3.3c1-.3 2.3-.9 3.4-1.9 1.1-.8 2.4-2.4 3.3-4.4.2-.4.3-.7.3-.9s-.1-.5-.3-1l-8-19.9L169.2 11.9 169.2 11.9z"/><g><path d="M66.5 48.2L54.6 78.3l-4.8-25.6c-.6-2.9-2.8-4.5-5.3-4.5H25l-.3 1.3c4 .9 8.5 2.3 11.3 3.8 1.7.9 2.2 1.7 2.7 3.9l9.1 35.3H60l18.6-44.3H66.5zM83.5 48.2L74 92.5 85.5 92.5 94.9 48.2zM110 60.5c0-1.6 1.6-3.3 4.9-3.7 1.6-.2 6.2-.4 11.3 2l2-9.4c-2.8-1-6.3-2-10.7-2-11.3 0-19.3 6-19.4 14.7-.1 6.4 5.7 9.9 10 12 4.5 2.2 6 3.5 5.9 5.5 0 3-3.6 4.3-6.8 4.3-5.8.1-9.1-1.6-11.8-2.8l-2.1 9.7c2.7 1.2 7.6 2.3 12.7 2.3 12 0 19.9-5.9 19.9-15.2C126.1 66.4 109.9 65.7 110 60.5M143.1 76.8l6.1-16.6 3.4 16.6H143.1zM147.5 48.2c-2.2 0-4.1 1.3-4.9 3.2l-17.2 41h12l2.4-6.6h14.7l1.4 6.6h10.6l-9.2-44.3h-9.8V48.2z"/></g></g></svg>