<svg xmlns="http://www.w3.org/2000/svg" width="437" height="174">
  <g fill="none">
    <path fill="#5F6368" d="M207.2 84.6v50.8h-16.1V10h42.7a38.8 38.8 0 0127.7 10.9A34.6 34.6 0 01273 47.3a35 35 0 01-11.5 26.6 38.7 38.7 0 01-27.6 10.7h-26.7zm0-59.2v43.8h27a21 21 0 0015.9-6.5c8.5-8.2 8.6-21.7.4-30.2l-.4-.4a20.8 20.8 0 00-15.9-6.6l-27-.1zm102.9 21.4c11.9 0 21.3 3.2 28.2 9.5a33.9 33.9 0 0110.3 26.2v52.8h-15.4v-11.9h-.7a30.8 30.8 0 01-26.6 14.7c-9.4 0-17.4-2.8-23.7-8.4a26.5 26.5 0 01-9.5-21c0-8.9 3.4-15.9 10.1-21.2a42.2 42.2 0 0126.9-7.9c9.6 0 17.4 1.8 23.6 5.2v-3.7c0-5.5-2.4-10.7-6.6-14.2a24.8 24.8 0 00-36.9 5.5l-14.2-8.9a39.3 39.3 0 0134.5-16.7zm-20.8 62.3c0 4.2 2 8.1 5.3 10.5 3.6 2.8 8 4.3 12.5 4.2 6.8 0 13.3-2.7 18.1-7.5 5.3-5 8-10.9 8-17.7-5-4-12-6-21-6-6.5 0-12 1.6-16.4 4.7-4.3 3.2-6.5 7.1-6.5 11.8zM437 49.6l-53.8 123.6h-16.6l20-43.2-35.4-80.3h17.5l25.5 61.6h.4l24.9-61.6z"/>
    <path fill="#4285F4" d="M142.1 73.6a89 89 0 00-1.2-14.6H73v27.7h38.9a33.3 33.3 0 01-14.4 21.9v18h23.2a70.2 70.2 0 0021.4-53z"/>
    <path fill="#34A853" d="M73 144c19.4 0 35.8-6.4 47.7-17.4l-23.2-18a43.2 43.2 0 01-24.5 6.9 43 43 0 01-40.4-29.7H8.7v18.6A72.1 72.1 0 0073 144z"/>
    <path fill="#FBBC04" d="M32.6 85.8c-3-8.9-3-18.6 0-27.6V39.7H8.7a71.4 71.4 0 000 64.6l23.9-18.5z"/>
    <path fill="#EA4335" d="M73 28.5a38.7 38.7 0 0127.6 10.8l20.5-20.5A68.7 68.7 0 0073 0 72 72 0 008.7 39.7l23.9 18.6A43 43 0 0173 28.5z"/>
  </g>
</svg>
