<svg width="152" height="24" viewBox="0 0 152 24" fill="none" xmlns="http://www.w3.org/2000/svg">
<g clip-path="url(#clip0)">
<path fill-rule="evenodd" clip-rule="evenodd" d="M51.2355 17.6893V19.8896C51.2355 20.3705 51.0662 20.666 50.4452 20.666H39.1568C38.5359 20.666 38.3669 20.3705 38.3669 19.8896V3.87689C38.3669 3.26658 38.6678 3.10022 39.1568 3.10022H41.8474C42.3367 3.10022 42.6373 3.26658 42.6373 3.87689V16.9126H50.4641C51.085 16.9126 51.2355 17.1902 51.2355 17.6893Z" fill="#111333"/>
<path fill-rule="evenodd" clip-rule="evenodd" d="M85.6659 17.6905V19.8908C85.6659 20.3717 85.4963 20.6672 84.8757 20.6672H73.0227C72.3265 20.6672 72.1951 20.5378 72.1951 19.8908V17.7829C72.1951 17.1726 72.5525 16.7845 72.5525 16.7845L79.8899 6.81809H73.2487C72.6277 6.81809 72.4585 6.52233 72.4585 6.04142V3.84112C72.4585 3.36021 72.6277 3.06445 73.2487 3.06445H84.1794C84.8001 3.06445 84.9697 3.36021 84.9697 3.84112V5.91203C84.9697 6.26324 84.9133 6.59627 84.6123 6.94748L77.3314 16.8766H84.8757C85.4963 16.9138 85.6659 17.1914 85.6659 17.6905Z" fill="#111333"/>
<path fill-rule="evenodd" clip-rule="evenodd" d="M103.426 3.84127L97.8385 14.0664V19.891C97.8385 20.5013 97.5372 20.6673 97.0482 20.6673H94.358C93.8311 20.6673 93.5675 20.5013 93.5675 19.891V14.0664L87.7353 3.84127C87.6037 3.54551 87.6789 3.10157 88.1682 3.10157H91.2913C91.912 3.10157 92.1756 3.15703 92.5706 3.91521L95.769 9.64733L98.8356 3.91521C99.193 3.21248 99.4563 3.10157 100.077 3.10157H103.012C103.539 3.0646 103.558 3.52703 103.426 3.84127Z" fill="#111333"/>
<path fill-rule="evenodd" clip-rule="evenodd" d="M115.974 9.33184C115.974 7.94487 115.053 6.81699 112.945 6.81699H110.349V11.7909H112.945C115.053 11.8279 115.974 10.7 115.974 9.33184ZM120.076 9.27638C120.076 12.993 117.574 15.4521 112.926 15.4521H110.33V19.8897C110.33 20.5 110.029 20.6664 109.54 20.6664H106.849C106.36 20.6664 106.059 20.5 106.059 19.8897V3.87729C106.059 3.39638 106.229 3.10063 106.849 3.10063H112.964C117.611 3.06335 120.076 5.59669 120.076 9.27638Z" fill="#111333"/>
<path fill-rule="evenodd" clip-rule="evenodd" d="M149.84 3.84127L144.253 14.0664V19.891C144.253 20.5013 143.951 20.6673 143.462 20.6673H140.772C140.245 20.6673 139.982 20.5013 139.982 19.891V14.0664L134.149 3.84127C134.018 3.54551 134.093 3.10157 134.582 3.10157H137.705C138.326 3.10157 138.59 3.15703 138.985 3.91521L142.183 9.64733L145.25 3.91521C145.607 3.21248 145.87 3.10157 146.491 3.10157H149.426C149.935 3.0646 149.972 3.52703 149.84 3.84127Z" fill="#111333"/>
<path fill-rule="evenodd" clip-rule="evenodd" d="M53.381 19.8537L59.1758 3.87797C59.4955 3.19373 59.7024 3.06433 60.2858 3.06433H62.882C63.4653 3.06433 63.6722 3.15676 63.992 3.87797L69.8244 19.8537C69.956 20.2049 69.862 20.6304 69.3354 20.6304H66.3063C65.6101 20.6304 65.422 20.4086 65.196 19.7983L61.5463 8.741L57.8965 19.7983C57.6705 20.4452 57.5012 20.6304 56.7489 20.6304H53.8888C53.3434 20.6304 53.2493 20.2049 53.381 19.8537Z" fill="#111333"/>
<path fill-rule="evenodd" clip-rule="evenodd" d="M119.192 19.8537L124.987 3.87797C125.307 3.19373 125.514 3.06433 126.097 3.06433H128.693C129.277 3.06433 129.484 3.15676 129.803 3.87797L135.636 19.8537C135.767 20.2049 135.673 20.6304 135.146 20.6304H132.118C131.421 20.6304 131.233 20.4086 131.007 19.7983L127.357 8.741L123.708 19.7983C123.482 20.4452 123.313 20.6304 122.56 20.6304H119.7C119.155 20.6304 119.061 20.2049 119.192 19.8537Z" fill="#111333"/>
<path fill-rule="evenodd" clip-rule="evenodd" d="M2.95946 21.4081C2.20713 21.4081 2.00023 21.0566 2.00023 20.4651V4.48929C2.00023 3.7496 2.35759 3.54626 2.95946 3.54626H6.21454C6.79759 3.54626 7.17376 3.73111 7.17376 4.48929V16.8408" fill="#E12353"/>
<path fill-rule="evenodd" clip-rule="evenodd" d="M2.95972 2.06589L22.7334 9.01832C23.5798 9.4065 23.7118 9.62862 23.7118 10.3495V13.4559C23.7118 14.1586 23.5798 14.3992 22.7334 14.7874L2.95972 21.7765C2.52713 21.9432 2.0005 21.8135 2.0005 21.2035V17.6165C2.0005 16.7844 2.26351 16.5441 3.05407 16.285L16.7126 11.8844L3.05407 7.4465C2.26351 7.18771 2.0005 6.96589 2.0005 6.0968V2.6762C2.019 2.02892 2.54594 1.89953 2.95972 2.06589Z" fill="#111333"/>
<path fill-rule="evenodd" clip-rule="evenodd" d="M9.97702 2.06589L29.7507 9.01832C30.5974 9.4065 30.7291 9.62862 30.7291 10.3495V13.4559C30.7291 14.1586 30.5974 14.3992 29.7507 14.7874L9.97702 21.7765C9.54443 21.9432 9.0178 21.8135 9.0178 21.2035V17.6165C9.0178 16.7844 9.28081 16.5441 10.0714 16.285L23.7299 11.8844L10.0714 7.4465C9.28112 7.18771 9.0178 6.96589 9.0178 6.0968V2.6762C9.0178 2.02892 9.54443 1.89953 9.97702 2.06589Z" fill="#E12353"/>
</g>
<defs>
<clipPath id="clip0">
<rect width="148" height="20" fill="white" transform="translate(2 2)"/>
</clipPath>
</defs>
</svg>
